
<svg width="100%" height="100%" viewBox="0 0 16 16" version="1.1" xmlns="http://www.w3.org/2000/svg" xmlns:xlink="http://www.w3.org/1999/xlink" xml:space="preserve" xmlns:serif="http://www.serif.com/" style="fill-rule:evenodd;clip-rule:evenodd;stroke-linejoin:round;stroke-miterlimit:2;">
    <g>
        <path d="M6.657,1L1,1L1,6.656L9.485,15.141L15.142,9.484L6.657,1ZM1.99,6.232L1.99,1.99L6.233,1.99L13.728,9.484L9.485,13.727L1.99,6.232Z" fill="currentColor"/>
        <path d="M3.475,3.475C3.147,3.803 2.963,4.249 2.963,4.713C2.963,5.673 3.753,6.463 4.713,6.463C5.178,6.463 5.624,6.279 5.952,5.95C6.28,5.622 6.464,5.176 6.464,4.713C6.464,3.752 5.674,2.962 4.713,2.962C4.249,2.962 3.803,3.146 3.475,3.475ZM4.182,4.182C4.323,4.036 4.518,3.953 4.722,3.953C5.133,3.953 5.472,4.291 5.472,4.703C5.472,4.906 5.389,5.101 5.243,5.242C5.103,5.377 4.916,5.453 4.722,5.453C4.31,5.453 3.972,5.114 3.972,4.703C3.972,4.509 4.047,4.322 4.182,4.182ZM6.126,8.602L8.601,6.127L12.136,9.663L9.661,12.137L6.126,8.602Z" style="fill:rgb(245,124,0);fill-rule:nonzero;"/>
    </g>
</svg>
