<svg width="100%" height="100%" viewBox="0 0 24 24" version="1.1" xmlns="http://www.w3.org/2000/svg" xmlns:xlink="http://www.w3.org/1999/xlink" xml:space="preserve" xmlns:serif="http://www.serif.com/" style="fill-rule:evenodd;clip-rule:evenodd;stroke-linecap:round;stroke-linejoin:round;stroke-miterlimit:1.5;">
    <g transform="matrix(1,0,0,1,-239.975001,0)">
        <g id="Content-Planner---Assignee" serif:id="Content Planner - Assignee" transform="matrix(0.24,0,0,0.24,239.495001,0.24)">
            <rect x="2" y="-1" width="100" height="100" style="fill:none;"/>
            <g transform="matrix(1,0,0,1,0.000033,-2.085792)">
                <g transform="matrix(4.166667,0,0,4.166667,-618.833366,1.085792)">
                    <path d="M156,20L156,6L158,6L158,7L164,7L164,6L166,6L166,20L156,20Z" style="fill:rgb(39,125,161);"/>
                </g>
                <g transform="matrix(0.740225,0,0,0.740225,14.988842,11.989944)">
                    <path d="M41.518,12.953L41.547,12.864C41.563,12.793 41.573,12.71 41.578,12.613C41.604,11.482 41.765,10.324 42.174,9.243C44.014,4.322 50.745,2.781 54.772,6.304C56.541,7.837 57.506,9.741 57.481,12.041C57.473,12.401 57.498,12.65 57.653,12.793C57.811,12.94 58.062,12.953 58.379,12.953C60.342,12.953 62.328,13.027 64.288,12.93C66.284,12.819 67.726,13.706 68.667,15.255C69.121,15.99 69.698,16.121 70.433,16.121L76.398,16.121C80.074,16.121 83.219,19.236 83.219,22.941C83.239,44.734 83.239,72.161 83.239,93.93C83.239,97.928 79.932,101.165 75.93,101.165L29.425,101.161C27.462,101.161 25.502,101.332 23.538,101.183C19.778,100.942 16.761,97.76 16.761,94.024L16.761,55.719C16.761,44.81 16.808,33.928 16.761,23.043C16.746,20.621 18.115,18.5 19.892,17.253C21.098,16.406 22.492,15.967 23.756,16.076C25.757,16.27 27.765,16.075 29.766,16.097C30.204,16.097 30.468,15.958 30.687,15.554C31.653,13.758 33.124,12.823 35.252,12.934C37.193,13.031 39.13,12.934 41.071,12.98L41.392,12.972L41.518,12.953ZM35.561,22.609L35.481,22.947C35.541,22.846 35.569,22.728 35.561,22.609ZM35.561,22.609C35.594,23.095 35.633,23.476 35.708,23.773C35.756,23.965 35.81,24.111 35.917,24.211C36.025,24.312 36.178,24.357 36.378,24.394C36.683,24.451 37.069,24.468 37.562,24.473L49.929,24.473C52.119,24.473 54.311,24.497 56.477,24.473C58.668,24.473 60.863,24.426 63.031,24.426C63.393,24.426 63.656,24.371 63.815,24.194C63.985,24.005 64.026,23.719 64.027,23.36C64.003,22.12 64.027,20.857 64.003,19.618L64.003,19.607C64.003,19.216 64.005,18.918 63.982,18.69C63.975,18.623 63.955,18.536 63.945,18.495C63.848,18.483 63.345,18.422 62.826,18.415C60.314,18.369 57.799,18.368 55.31,18.27C54.355,18.226 53.624,17.934 53.098,17.437C52.575,16.943 52.242,16.234 52.125,15.297L52.124,15.288C52.002,14.182 52.025,13.079 51.95,11.973C51.871,10.74 50.806,9.79 49.553,9.771C48.316,9.752 47.171,10.705 47.052,11.924C46.98,12.611 47.008,13.325 47.008,14.035C46.994,15.663 46.709,16.701 46.079,17.352C45.445,18.007 44.424,18.316 42.801,18.345C40.779,18.369 38.752,18.345 36.73,18.345C36.399,18.345 36.136,18.355 35.927,18.396C35.818,18.417 35.731,18.437 35.671,18.493C35.614,18.547 35.591,18.628 35.567,18.729C35.518,18.93 35.499,19.189 35.488,19.513C35.442,20.533 35.489,21.584 35.561,22.609ZM30.092,21.642L29.995,21.617C29.877,21.6 29.734,21.601 29.575,21.61C27.839,21.685 26.08,21.658 24.345,21.685L24.335,21.685C23.845,21.685 23.449,21.707 23.132,21.777C22.907,21.826 22.732,21.894 22.606,22.016C22.482,22.137 22.414,22.306 22.364,22.524C22.293,22.834 22.269,23.222 22.269,23.704L22.269,93.813C22.269,94.505 22.334,94.978 22.624,95.264C22.916,95.552 23.396,95.613 24.093,95.613L75.57,95.613C76.349,95.613 76.906,95.505 77.256,95.165C77.601,94.83 77.71,94.295 77.71,93.547L77.71,23.286C77.71,22.715 77.621,22.296 77.353,22.031C77.086,21.766 76.667,21.681 76.105,21.681L76.096,21.681C74.538,21.658 73.002,21.658 71.471,21.634L71.462,21.634C70.88,21.616 70.444,21.6 70.116,21.624C69.947,21.637 69.823,21.633 69.746,21.706C69.67,21.778 69.667,21.901 69.644,22.07C69.601,22.397 69.594,22.836 69.582,23.424C69.5,27.165 66.67,29.939 62.98,29.939C54.14,29.939 45.327,29.962 36.511,29.939C34.313,29.939 32.617,28.953 31.357,27.16C30.246,25.6 29.921,23.885 30.107,22.064C30.125,21.886 30.099,21.689 30.092,21.642Z"/>
                </g>
                <g transform="matrix(4.166667,0,0,4.166667,2,-1)">
                    <path d="M9,8L15,8L15,6L13,6L13,5L12,4L11,5L11,6L9,6L9,8Z" style="fill-opacity:0.4;stroke:black;stroke-opacity:0.4;stroke-width:0.21px;"/>
                </g>
                <g transform="matrix(10,0,0,7.5,-2472.895872,-56.414208)">
                    <path d="M252.5,16.289C251.777,16.289 251.217,17.295 251.217,18.5C251.217,18.579 251.219,18.657 251.224,18.734C251.234,18.893 251.145,19.033 251.026,19.046C250.906,19.059 250.801,18.94 250.792,18.781C250.786,18.689 250.783,18.595 250.783,18.5C250.783,17.35 251.211,16.376 251.812,15.946C251.59,15.689 251.45,15.311 251.45,14.889C251.45,14.116 251.92,13.488 252.5,13.488C253.08,13.488 253.55,14.116 253.55,14.889C253.55,15.311 253.41,15.689 253.188,15.946C253.789,16.376 254.217,17.35 254.217,18.5C254.217,18.597 254.214,18.692 254.208,18.786C254.198,18.945 254.093,19.064 253.974,19.05C253.854,19.037 253.766,18.897 253.776,18.738C253.78,18.66 253.783,18.58 253.783,18.5C253.783,17.295 253.223,16.289 252.5,16.289ZM252.5,15.711C252.84,15.711 253.116,15.342 253.116,14.889C253.116,14.435 252.84,14.067 252.5,14.067C252.16,14.067 251.884,14.435 251.884,14.889C251.884,15.342 252.16,15.711 252.5,15.711Z"/>
                </g>
                <g transform="matrix(10,0,0,7.5,-2472.895872,-56.414208)">
                    <path d="M251.008,18.758C251.003,18.673 251,18.587 251,18.5C251,17.12 251.672,16 252.5,16C253.328,16 254,17.12 254,18.5C254,18.589 253.997,18.676 253.992,18.762" style="fill-opacity:0.4;"/>
                </g>
                <g transform="matrix(8.333333,0,0,8.333333,-2047.895872,-53.080875)">
                    <circle cx="252" cy="13" r="1" style="fill-opacity:0.4;"/>
                </g>
            </g>
        </g>
    </g>
</svg>
