<svg width="100%" height="100%" viewBox="0 0 448 512" version="1.1" xmlns="http://www.w3.org/2000/svg" xmlns:xlink="http://www.w3.org/1999/xlink" xml:space="preserve" xmlns:serif="http://www.serif.com/" style="fill-rule:evenodd;clip-rule:evenodd;stroke-linejoin:round;stroke-miterlimit:2;">
    <g transform="matrix(0.724231,0,0,0.724231,61.7723,70.5969)" fill="currentColor">
        <path d="M235.888,365.905C203.848,351.417 167.73,348.082 133.503,356.66L63.843,374.102L63.843,409.327L64,409.327L64,480C64,497.7 49.7,512 32,512C14.3,512 0,497.7 0,480L0,32C0,14.3 14.3,0 32,0C47.674,0 60.682,11.214 63.455,26.072L127.795,9.941L127.822,9.934C170.881,-0.803 216.425,4.178 256.088,24.066C296.352,44.241 343.748,44.241 384.012,24.066L384.029,24.057L393.629,19.257C428.469,1.837 469.402,27.2 469.402,66.1L469.402,132.39L426.598,175.194L426.598,66.1C426.598,59 419.131,54.363 412.771,57.543L403.188,62.334C350.852,88.559 289.248,88.559 236.912,62.334L236.907,62.332C206.378,47.024 171.325,43.203 138.187,51.464L63.843,70.104L63.843,329.977L123.097,315.14C169.147,303.6 217.887,308.971 260.351,330.147L260.371,330.157C262.906,331.425 265.467,332.619 268.051,333.741L235.888,365.905Z"/>
        <g transform="matrix(37.5167,0,0,37.5167,-80.1947,-60.7183)">
            <path d="M14.2,7.2L15.8,8.8C15.9,8.9 15.9,9.1 15.8,9.2L14.5,10.5L12.5,8.5L13.8,7.2C13.9,7.1 14.1,7.1 14.2,7.2ZM7.1,13.9L12,9L14,11L9.1,15.9C9,16 9,16 8.9,16L7,16L7,14.1C7,14 7,14 7.1,13.9Z" style="fill-rule:nonzero;"/>
        </g>
    </g>
</svg>
