<svg width="100%" height="100%" viewBox="0 0 16 16" version="1.1" xmlns="http://www.w3.org/2000/svg" xmlns:xlink="http://www.w3.org/1999/xlink" xml:space="preserve" xmlns:serif="http://www.serif.com/" style="fill-rule:evenodd;clip-rule:evenodd;stroke-linejoin:round;stroke-miterlimit:2;">
    <g fill="currentColor">
        <path d="M10.957,15.001L1,15.001C1.087,12.288 2.313,11.588 2.313,11.588C3.8,11.164 4.836,10.579 5.871,10.185C5.986,9.863 6.228,9.295 6.252,8.007C5.536,7.294 5.024,6.279 5.024,5.463L5.024,3.537C5.024,2.137 6.25,1 7.65,1L8.35,1C9.838,1 10.976,2.137 10.976,3.537L10.976,5.463C10.976,6.272 10.47,7.276 9.764,7.988C9.782,8.414 9.82,8.762 9.865,9.048L8.154,10.759C8.154,10.759 7.82,10.992 7.799,11.482C7.778,11.957 8.233,12.277 8.233,12.277L10.957,15.001Z"/>
        <g transform="matrix(0.681073,0,0,0.679599,7.58042,6.012)">
            <path d="M8.157,12.95C8.345,12.763 8.45,12.508 8.45,12.243C8.45,11.978 8.345,11.723 8.157,11.536L5.621,9L10.242,9.003C10.79,9.003 11.242,8.551 11.242,8.003C11.242,7.454 10.79,7.003 10.242,7.003L5.621,7L8.157,4.464C8.337,4.278 8.438,4.028 8.438,3.769C8.438,3.221 7.986,2.769 7.438,2.769C7.179,2.769 6.929,2.87 6.743,3.05L2.5,7.293C2.312,7.48 2.207,7.735 2.207,8C2.207,8.265 2.312,8.52 2.5,8.707L6.743,12.95C7.131,13.338 7.769,13.338 8.157,12.95Z" style="fill-rule:nonzero;"/>
        </g>
    </g>
</svg>
