<svg width="100%" height="100%" viewBox="0 0 16 16" version="1.1" xmlns="http://www.w3.org/2000/svg" xmlns:xlink="http://www.w3.org/1999/xlink" xml:space="preserve" xmlns:serif="http://www.serif.com/" style="fill-rule:evenodd;clip-rule:evenodd;stroke-linejoin:round;stroke-miterlimit:2;">
    <g fill="currentColor">
        <path d="M8.86,15.001L1,15.001C1.087,12.288 2.313,11.588 2.313,11.588C3.8,11.164 4.836,10.579 5.871,10.185C5.986,9.863 6.228,9.295 6.252,8.007C5.536,7.294 5.024,6.279 5.024,5.463L5.024,3.537C5.024,2.137 6.25,1 7.65,1L8.35,1C9.838,1 10.976,2.137 10.976,3.537L10.976,5.463C10.976,6.262 10.482,7.252 9.789,7.963C9.431,8.263 8.46,9.109 8.46,9.109C8.46,9.109 8.2,9.267 8.202,9.723C8.204,10.301 8.479,10.421 8.539,10.54C8.553,10.568 10.007,11.988 10.007,11.988L8.384,13.591C8.384,13.591 8.046,14 8.332,14.474C8.43,14.635 8.696,14.866 8.86,15.001Z"/>
        <g transform="matrix(0.763322,0,0,0.763322,6.11286,5.79895)">
            <path d="M11.9,5.5L9.4,8L11.9,10.5C12.1,10.7 12.1,11 11.9,11.2L11.2,11.9C11,12.1 10.7,12.1 10.5,11.9L8,9.4L5.5,11.9C5.3,12.1 5,12.1 4.8,11.9L4.1,11.2C3.9,11 3.9,10.7 4.1,10.5L6.6,8L4.1,5.5C3.9,5.3 3.9,5 4.1,4.8L4.8,4.1C5,3.9 5.3,3.9 5.5,4.1L8,6.6L10.5,4.1C10.7,3.9 11,3.9 11.2,4.1L11.9,4.8C12.1,5 12.1,5.3 11.9,5.5Z" style="fill-rule:nonzero;"/>
        </g>
    </g>
</svg>
