<svg width="169" height="169" viewBox="0 0 169 169" fill="none" xmlns="http://www.w3.org/2000/svg">
    <g transform="matrix(1,0,0,1,108.023,-25.1587)">
        <rect x="-108.023" y="25.159" width="168.982" height="168.982" style="fill:none;"/>
        <clipPath id="_clip1">
            <rect x="-108.023" y="25.159" width="168.982" height="168.982"/>
        </clipPath>
        <g clip-path="url(#_clip1)">
            <g transform="matrix(0.238537,0,0,0.238537,-76.9974,48.2765)">
                <g transform="matrix(1.56938,0,0,1.37102,-125.611,-91.7755)">
                    <rect x="-2.839" y="-3.749" width="451.442" height="516.758" style="fill:rgb(23,167,186);"/>
                </g>
                <path d="M64,409.327L64,480C64,497.7 49.7,512 32,512C14.3,512 0,497.7 0,480L0,32C0,14.3 14.3,0 32,0C48.62,0 62.242,12.608 63.843,28.8L63.843,409.327L64,409.327Z" style="fill:rgb(228,228,228);"/>
                <path d="M64,409.327L63.843,409.327L63.843,28.8C63.947,29.852 64,30.92 64,32L64,48L133,30.7C171.1,21.2 211.4,25.6 246.5,43.2C292.8,66.4 347.3,66.4 393.6,43.2L403.2,38.4C423.8,28.1 448,43.1 448,66.1L448,313.7C448,327.1 439.7,339 427.2,343.7L392.5,356.7C346.3,374.1 295,371.4 250.8,349.3C212.9,330.4 169.4,325.6 128.3,335.9L64,352L64,409.327Z" style="fill:white;"/>
            </g>
        </g>
    </g>
</svg>
