<?xml version="1.0" encoding="UTF-8" standalone="no"?>
<!DOCTYPE svg PUBLIC "-//W3C//DTD SVG 1.1//EN" "http://www.w3.org/Graphics/SVG/1.1/DTD/svg11.dtd">
<svg width="100%" height="100%" viewBox="0 0 448 512" version="1.1" xmlns="http://www.w3.org/2000/svg" xmlns:xlink="http://www.w3.org/1999/xlink" xml:space="preserve" xmlns:serif="http://www.serif.com/" style="fill-rule:evenodd;clip-rule:evenodd;stroke-linejoin:round;stroke-miterlimit:2;">
    <g transform="matrix(0.724231,0,0,0.724231,61.7723,70.5969)">
        <path d="M64,409.327L64,480C64,497.7 49.7,512 32,512C14.3,512 0,497.7 0,480L0,32C0,14.3 14.3,0 32,0C48.62,0 62.242,12.608 63.843,28.8L63.843,409.327L64,409.327Z"/>
        <path d="M64,409.327L63.843,409.327L63.843,28.8C63.947,29.852 64,30.92 64,32L64,48L133,30.7C171.1,21.2 211.4,25.6 246.5,43.2C292.8,66.4 347.3,66.4 393.6,43.2L403.2,38.4C423.8,28.1 448,43.1 448,66.1L448,313.7C448,327.1 439.7,339 427.2,343.7L392.5,356.7C346.3,374.1 295,371.4 250.8,349.3C212.9,330.4 169.4,325.6 128.3,335.9L64,352L64,409.327Z" style="fill:rgb(250,136,147);"/>
    </g>
</svg>
