
<svg width="100%" height="100%" viewBox="0 0 473 472" version="1.1" xmlns="http://www.w3.org/2000/svg" xmlns:xlink="http://www.w3.org/1999/xlink" xml:space="preserve" xmlns:serif="http://www.serif.com/" style="fill-rule:evenodd;clip-rule:evenodd;stroke-linejoin:round;stroke-miterlimit:2;">
    <g transform="matrix(1,0,0,1,-20,-20.0083)">
        <g fill="currentColor">
            <path d="M481.458,326.542C478.627,323.713 475.345,321.374 471.746,319.623C475.702,314.344 476.617,307.362 474.155,301.242C473.573,299.817 472.824,298.467 471.925,297.218L465.185,287.946L455.349,263.6C454.74,262.091 453.267,261.098 451.64,261.098C451.126,261.098 450.617,261.197 450.141,261.389L438.092,266.259C430.651,269.265 426.213,277.055 427.422,284.989L415.622,289.751C408.06,292.821 403.437,300.613 404.369,308.721L394.063,312.881C388.723,304.853 379.702,300.012 370.06,300C368.469,299.999 366.881,300.131 365.313,300.395L359.343,301.389C357.39,301.678 355.928,303.372 355.928,305.346C355.928,307.54 357.734,309.346 359.928,309.346C360.173,309.346 360.417,309.324 360.657,309.279L366.641,308.279C367.771,308.091 368.915,307.998 370.06,308C380.521,308.017 389.437,315.894 390.741,326.274L393.541,348.747C393.646,349.601 393.674,350.463 393.624,351.322C393.183,356.856 391.998,362.305 390.1,367.522L382.807,387.579L357.944,381.363L369.188,350.441C369.347,350.003 369.429,349.54 369.429,349.074C369.429,346.879 367.623,345.074 365.428,345.074C363.75,345.074 362.242,346.13 361.669,347.707L355.744,364L276,364L276,340C276,340 360,340 360,340C362.195,340 364,338.194 364,336C364,335.379 363.856,334.766 363.578,334.211L339.578,286.211C338.901,284.858 337.513,284 336,284L264,284C263.82,284.001 263.64,284.013 263.461,284.038C263.402,284.046 263.344,284.062 263.286,284.072C263.169,284.093 263.053,284.115 262.94,284.146C262.872,284.165 262.807,284.189 262.74,284.212C262.64,284.245 262.54,284.279 262.44,284.321C262.372,284.35 262.307,284.383 262.24,284.416C262.147,284.46 262.056,284.507 261.967,284.559C261.903,284.597 261.841,284.639 261.779,284.68C261.695,284.736 261.612,284.794 261.533,284.856C261.473,284.903 261.415,284.956 261.358,285.003C261.283,285.069 261.21,285.138 261.14,285.21C261.085,285.266 261.033,285.322 260.982,285.381C260.916,285.456 260.854,285.535 260.794,285.616C260.747,285.679 260.701,285.742 260.657,285.809C260.637,285.839 260.613,285.866 260.594,285.897C260.558,285.956 260.531,286.018 260.499,286.077C260.467,286.136 260.443,286.164 260.419,286.211L245.528,316L240.644,316L202.776,260.448C192.497,245.498 174.021,238.316 156.344,242.4L49.56,267.524L40.48,250.061C38.059,245.382 33.208,242.437 27.94,242.448C25.746,242.448 23.94,244.254 23.94,246.448L23.94,320C23.94,322.194 25.746,324 27.94,324L33.407,324C24.936,330.818 20,341.125 20,352L20,472C20,474.194 21.806,476 24,476C26.194,476 28,474.194 28,472L28,352C28,336.64 40.64,324 56,324C71.36,324 84,336.64 84,352L84,378.9L52.666,469.4L34.839,475.964C29.816,477.828 26.46,482.642 26.448,488C26.448,490.194 28.254,492 30.448,492L104,492C106.194,492 108,490.194 108,488L108,472.742L146.747,372L352.834,372L340.934,404.715L268.987,425.271L254.6,412.961C253.021,411.61 250.64,411.703 249.171,413.172L246.448,415.896C244.476,417.868 243.367,420.546 243.367,423.335C243.367,426.494 244.789,429.49 247.236,431.487L234.623,435.087C230.488,436.249 227.999,440.556 229.058,444.719L234.877,468L120,468C117.806,468 116,469.806 116,472C116,474.194 117.806,476 120,476L420,476L420,488C420,490.194 421.806,492 424,492L488,492C490.194,492 492,490.194 492,488L492,352C492.027,342.45 488.228,333.277 481.458,326.542ZM264,296.944L281.528,332L246.472,332L264,296.944ZM333.528,292L353.528,332L290.472,332L270.472,292L333.528,292ZM31.94,251.928C32.532,252.439 33.022,253.058 33.382,253.752L44,274.172L44,304C44,306.194 45.806,308 48,308C50.194,308 52,306.194 52,304L52,275.168L158.176,250.184C172.64,246.842 187.757,252.719 196.165,264.953L230.962,316L189.417,316L171.432,285.946C170.518,284.418 168.689,283.676 166.969,284.135L47.475,316L31.94,316L31.94,251.928ZM81.458,326.542C77.966,323.042 73.788,320.3 69.187,318.49L166.116,292.642L180.1,316L146.73,316C122.284,316.012 100.393,331.596 92.38,354.691L92,355.791L92,352C92.027,342.45 88.228,333.277 81.458,326.542ZM144,364C142.349,364 140.86,365.023 140.267,366.564L100.267,470.564L100.276,470.564C100.096,471.021 100.002,471.508 100,472L100,484L36.579,484C36.898,483.784 37.242,483.608 37.603,483.476L57.907,476L88,476C90.194,476 92,474.194 92,472C92,469.806 90.194,468 88,468L61.618,468L99.939,357.312C106.832,337.425 125.682,324.005 146.73,324L241.53,324L236.424,334.211C236.146,334.766 236.002,335.379 236.002,336C236.002,338.194 237.806,339.999 240,340L268,340L268,364L144,364ZM435.44,280.368C436.08,277.334 438.205,274.818 441.089,273.679L449.43,270.308L457.951,291.398C458.074,291.701 458.233,291.988 458.425,292.252L465.44,301.902C465.963,302.63 466.4,303.417 466.74,304.247C468.967,309.785 466.254,316.176 460.723,318.421L450.388,322.59C450.281,318.846 448.489,315.343 445.514,313.066C446.715,311.584 448.276,310.435 450.047,309.729C451.556,309.12 452.55,307.647 452.55,306.02C452.55,304.998 452.158,304.014 451.456,303.271L437.787,288.813C435.639,286.572 434.756,283.396 435.44,280.368ZM406.925,316.319C408.117,318.5 409.613,320.502 411.368,322.263C412.118,323.015 413.138,323.439 414.201,323.439C416.395,323.439 418.201,321.633 418.201,319.439C418.201,318.38 417.78,317.364 417.033,316.614C415.83,315.401 414.803,314.025 413.98,312.528L412.48,308.812C411.427,303.974 414.034,299.033 418.622,297.171L430.422,292.406C430.893,293.075 431.411,293.71 431.971,294.306L442.217,305.144C439.533,307.296 437.475,310.128 436.256,313.344C436.085,313.796 435.997,314.276 435.997,314.76C435.997,316.595 437.26,318.206 439.042,318.644C440.409,318.983 441.533,319.958 442.061,321.263C442.907,323.32 442.029,325.711 440.053,326.731C439.996,326.761 439.94,326.792 439.885,326.824C439.81,326.865 439.733,326.901 439.653,326.93C437.747,327.701 435.543,327.019 434.404,325.308C433.362,323.718 431.324,323.079 429.561,323.791L399.98,335.732L398.68,325.286C398.461,323.528 398.081,321.795 397.544,320.107L406.925,316.319ZM420,352L420,364L399.558,364C400.592,360.032 401.276,355.981 401.602,351.893C401.688,350.516 401.647,349.135 401.479,347.766L401.003,343.946L424.575,334.431C421.567,339.797 419.991,345.848 420,352ZM257.1,436.988C258.812,436.498 260,434.922 260,433.142C260,431.895 259.417,430.717 258.425,429.961L252.361,425.341C251.735,424.865 251.367,424.122 251.367,423.335C251.367,422.667 251.633,422.025 252.106,421.552L252.213,421.445L265.424,432.745C266.443,433.617 267.835,433.92 269.124,433.552L345.1,411.846C346.332,411.494 347.322,410.571 347.76,409.367L355.195,388.922L380.058,395.138L371.507,418.653C367.43,429.89 358.006,438.384 346.407,441.275L242.91,467.149L236.819,442.783L257.1,436.988ZM272.5,468L348.35,449.037C362.527,445.503 374.045,435.122 379.029,421.388L396.983,372L420,372L420,468L272.5,468ZM484,484L428,484L428,352C427.985,345.677 430.127,339.533 434.071,334.59C436.841,335.538 439.861,335.462 442.58,334.375C442.792,334.294 443.001,334.204 443.208,334.107C443.278,334.084 443.347,334.058 443.417,334.029L463.717,325.838C464.054,325.702 464.37,325.538 464.694,325.384C476.182,329.132 484.004,339.916 484,352L484,484Z" style="fill-rule:nonzero;"/>
            <path d="M40,236C42.194,236 44,234.194 44,232L44,228C44.01,219.227 51.227,212.01 60,212L452,212C460.773,212.01 467.99,219.227 468,228L468,280C468,282.194 469.806,284 472,284C474.194,284 476,282.194 476,280L476,228C475.985,214.84 465.16,204.015 452,204L60,204C46.84,204.015 36.015,214.84 36,228L36,232C36,234.194 37.806,236 40,236Z" style="fill-rule:nonzero;"/>
            <path d="M210.862,97.768C210.9,97.845 210.924,97.925 210.967,98C211.029,98.107 211.101,98.2 211.167,98.3C215.694,105.981 222.109,112.38 229.8,116.889C229.87,116.935 229.928,116.989 230,117.033C230.114,117.099 230.232,117.152 230.35,117.206C246.232,126.254 265.768,126.254 281.65,117.206C281.767,117.152 281.885,117.099 281.999,117.033C282.072,116.991 282.13,116.933 282.199,116.889C289.89,112.379 296.303,105.98 300.83,98.3C300.9,98.2 300.971,98.1 301.03,98C301.073,97.925 301.097,97.845 301.13,97.768C310.268,81.827 310.268,62.173 301.13,46.232C301.092,46.155 301.069,46.075 301.03,46C300.991,45.925 300.93,45.868 300.885,45.8C296.357,38.076 289.923,31.641 282.2,27.111C282.13,27.065 282.072,27.011 282,26.967C281.928,26.923 281.844,26.9 281.767,26.862C265.826,17.724 246.173,17.724 230.232,26.862C230.155,26.9 230.075,26.923 230,26.967C229.925,27.011 229.869,27.067 229.8,27.111C222.076,31.64 215.641,38.076 211.112,45.8C211.065,45.869 211.012,45.928 210.967,46C210.922,46.072 210.9,46.155 210.862,46.232C201.724,62.173 201.724,81.827 210.862,97.768ZM230.641,36.077L232.541,39.359C233.251,40.608 234.582,41.382 236.018,41.382C238.213,41.382 240.018,39.576 240.018,37.382C240.018,36.671 239.829,35.972 239.469,35.359L237.569,32.059C242.121,29.95 247.003,28.641 252,28.19L252,32C252,34.194 253.806,36 256,36C258.194,36 260,34.194 260,32L260,28.19C265,28.641 269.884,29.952 274.438,32.064L272.538,35.364C272.178,35.977 271.989,36.676 271.989,37.387C271.989,39.581 273.794,41.387 275.989,41.387C277.425,41.387 278.756,40.613 279.466,39.364L281.361,36.082C285.455,38.981 289.027,42.553 291.926,46.646L288.643,48.546C287.394,49.256 286.62,50.587 286.62,52.023C286.62,54.218 288.426,56.023 290.62,56.023C291.331,56.023 292.03,55.834 292.643,55.474L295.938,53.574C298.048,58.124 299.358,63.005 299.81,68L296,68C293.806,68 292,69.806 292,72C292,74.194 293.806,76 296,76L299.81,76C299.359,81 298.048,85.884 295.936,90.438L292.641,88.538C292.028,88.178 291.329,87.989 290.618,87.989C288.424,87.989 286.618,89.794 286.618,91.989C286.618,93.425 287.392,94.756 288.641,95.466L291.924,97.361C289.025,101.454 285.453,105.026 281.359,107.925L279.464,104.643C278.747,103.42 277.431,102.666 276.013,102.666C273.819,102.666 272.013,104.472 272.013,106.666C272.013,107.359 272.193,108.04 272.536,108.643L274.436,111.943C269.882,114.052 264.998,115.361 260,115.81L260,112C260,109.806 258.194,108 256,108C253.806,108 252,109.806 252,112L252,115.81C247,115.359 242.116,114.048 237.562,111.936L239.462,108.636C239.822,108.023 240.011,107.324 240.011,106.613C240.011,104.419 238.206,102.613 236.011,102.613C234.575,102.613 233.244,103.387 232.534,104.636L230.634,107.918C226.54,105.019 222.968,101.447 220.069,97.354L223.352,95.459C224.601,94.749 225.375,93.418 225.375,91.982C225.375,89.787 223.569,87.982 221.375,87.982C220.664,87.982 219.965,88.171 219.352,88.531L216.052,90.431C213.945,85.878 212.638,80.996 212.19,76L216,76C218.194,76 220,74.194 220,72C220,69.806 218.194,68 216,68L212.19,68C212.641,63 213.952,58.116 216.064,53.562L219.364,55.462C219.977,55.822 220.676,56.011 221.387,56.011C223.581,56.011 225.387,54.206 225.387,52.011C225.387,50.575 224.613,49.244 223.364,48.534L220.081,46.634C222.979,42.544 226.55,38.974 230.641,36.077Z" style="fill-rule:nonzero;"/>
            <path d="M253.5,75.12C254.716,76.096 256.397,76.275 257.792,75.578L273.792,67.578C275.145,66.901 276.003,65.513 276.003,64C276.003,61.805 274.198,60 272.003,60C271.382,60 270.769,60.144 270.214,60.422L261.993,64.533L267.883,40.97C267.974,40.632 268.02,40.283 268.02,39.933C268.02,37.739 266.214,35.933 264.02,35.933C262.165,35.933 260.542,37.223 260.123,39.03L252.123,71.03C251.745,72.543 252.284,74.144 253.5,75.12Z" style="fill-rule:nonzero;"/>
        </g>
    </g>
</svg>
