
<svg width="100%" height="100%" viewBox="0 0 493 440" version="1.1" xmlns="http://www.w3.org/2000/svg" xmlns:xlink="http://www.w3.org/1999/xlink" xml:space="preserve" xmlns:serif="http://www.serif.com/" style="fill-rule:evenodd;clip-rule:evenodd;stroke-linejoin:round;stroke-miterlimit:2;">
    <g transform="matrix(1,0,0,1,-7.26028,-52)">
        <g fill="currentColor">
            <path d="M112.065,277.508L114.379,273.937C115.538,272.148 115.074,269.731 113.335,268.498L105.813,263.169C105.13,262.674 104.308,262.407 103.465,262.407C101.27,262.407 99.465,264.213 99.465,266.407C99.465,267.719 100.11,268.95 101.188,269.696L105.579,272.808L105.352,273.158C104.912,273.816 104.677,274.59 104.677,275.381C104.677,277.575 106.483,279.381 108.677,279.381C110.052,279.381 111.334,278.672 112.065,277.508Z" style="fill-rule:nonzero;"/>
            <path d="M120.6,280.746C121.079,280.07 121.336,279.262 121.336,278.434C121.336,276.239 119.53,274.433 117.336,274.433C116.039,274.433 114.82,275.063 114.071,276.121L113.271,277.254C112.547,278.272 111.592,279.103 110.484,279.68C109.127,280.355 108.266,281.746 108.266,283.261C108.266,285.455 110.072,287.261 112.266,287.261C112.93,287.261 113.584,287.096 114.168,286.78C116.407,285.617 118.337,283.937 119.799,281.88L120.6,280.746Z" style="fill-rule:nonzero;"/>
            <path d="M497.327,375.177L473.563,366.817L400.127,263.737C393.36,254.278 383.327,247.65 371.972,245.137L368.488,240.252C363.306,232.996 356.213,227.316 348,223.844L348,156C348,156 392,156 392,156C394.195,156 396,154.194 396,152C396,151.78 395.982,151.56 395.946,151.343L379.946,55.343C379.626,53.422 377.947,52 376,52L312,52C310.053,52 308.374,53.422 308.054,55.343L292.054,151.343C292.018,151.56 292,151.78 292,152C292,154.194 293.805,156 296,156C296,156 340,156 340,156L340,221.245C324.552,217.675 308.297,221.96 296.617,232.682L268,258.913L268,218C267.967,188.389 243.611,164.033 214,164L74,164C44.389,164.033 20.033,188.389 20,218L20,320.491L8.814,329.135C7.835,329.892 7.26,331.062 7.26,332.3C7.26,333.596 7.89,334.814 8.947,335.563L20,343.4L20,488C20,490.194 21.806,492 24,492L32,492C33.899,492 35.55,490.647 35.922,488.784L43.279,452L156,452L156,488C156,490.194 157.806,492 160,492L168,492C169.899,492 171.55,490.647 171.922,488.784L179.279,452L244.721,452L252.078,488.784C252.45,490.647 254.101,492 256,492L264,492C266.194,492 268,490.194 268,488L268,452L340,452L340,468L336,468C325.033,468.013 316.013,477.033 316,488C316,490.194 317.806,492 320,492L368,492C370.194,492 372,490.194 372,488C371.987,477.033 362.967,468.013 352,468L348,468L348,452L380.721,452L388.078,488.784C388.45,490.647 390.101,492 392,492L400,492C402.194,492 404,490.194 404,488L404,385.175L404.636,386.163C405.747,387.891 408.018,388.497 409.842,387.551L419.032,382.782L436.632,410.163C437.743,411.892 440.015,412.497 441.839,411.551L497.839,382.501C499.163,381.814 499.997,380.442 499.997,378.95C499.997,377.257 498.921,375.739 497.324,375.177L497.327,375.177ZM315.389,60L323.531,60L316.024,127.559C315.782,129.74 317.377,131.734 319.558,131.976C319.706,131.992 319.856,132 320.005,132C322.032,131.998 323.753,130.455 323.976,128.441L331.58,60L340,60L340,128C340,130.194 341.806,132 344,132C346.194,132 348,130.194 348,128L348,60L356.42,60L364.02,128.441C364.244,130.459 365.97,132.002 368,132C368.149,132 368.299,131.992 368.447,131.976C370.628,131.734 372.223,129.74 371.981,127.559L364.469,60L372.611,60L387.278,148L300.722,148L315.389,60ZM363.314,484L324.686,484C326.382,479.221 330.929,476.006 336,476L352,476C357.071,476.006 361.618,479.221 363.314,484ZM302.023,238.578C309.436,231.778 319.138,228.002 329.198,228.002C341.811,228.002 353.715,233.938 361.305,244.012C349.03,244.133 337.281,249.067 328.6,257.746L290.49,295.175C285.937,294.19 281.242,296.302 278.958,300.362L268.158,319.581L243.821,325.181L224.47,312.453C224.162,311.813 223.832,311.187 223.488,310.568L302.023,238.578ZM228,444L228,388L332,388L332,444L228,444ZM260,373.7L297.5,365.148C285.941,373.67 272.052,379.286 260,379.941L260,373.7ZM252,380L232.349,380L252,375.519L252,380ZM227.8,324.223L233.032,327.664L228,328.822L228,328C227.999,326.738 227.932,325.478 227.8,324.223ZM332,380L288.536,380C297.936,375.297 306.461,369.02 313.742,361.439L324.675,358.946C328.941,358.005 332.004,354.192 332.004,349.823C332.004,347.658 331.251,345.558 329.875,343.886L332.003,341.546L332,380ZM316.277,319.675C316.177,319.693 293.349,324.813 293.349,324.813C291.498,325.196 290.159,326.84 290.159,328.73C290.159,330.924 291.965,332.73 294.159,332.73C294.472,332.73 294.783,332.693 295.087,332.621C295.391,332.549 317.918,327.527 318.009,327.504C318.753,327.506 319.363,328.118 319.363,328.862C319.363,329.495 318.921,330.048 318.303,330.187L295.657,335.228C293.801,335.606 292.456,337.253 292.456,339.147C292.456,341.342 294.261,343.147 296.456,343.147C296.769,343.147 297.081,343.111 297.385,343.038L320.035,338.029C320.128,338.009 320.223,337.999 320.318,337.999C321.063,337.999 321.675,338.612 321.675,339.356C321.675,339.969 321.261,340.509 320.669,340.667L297.969,345.684C296.11,346.06 294.761,347.708 294.761,349.605C294.761,351.799 296.567,353.605 298.761,353.605C299.076,353.605 299.39,353.568 299.696,353.494L322.403,348.479C322.487,348.463 322.573,348.455 322.659,348.455C323.403,348.455 324.015,349.067 324.015,349.811C324.015,350.459 323.551,351.021 322.915,351.143L228,372.787L228,337.032L271.671,326.981C272.768,326.729 273.709,326.024 274.261,325.043L285.932,304.282C286.401,303.458 287.278,302.948 288.226,302.948C289.674,302.948 290.865,304.14 290.865,305.587C290.865,306.045 290.746,306.495 290.52,306.893L284.644,317.1C284.295,317.707 284.111,318.395 284.111,319.095C284.111,321.29 285.916,323.095 288.111,323.095C288.403,323.095 288.694,323.063 288.979,323L315.411,317.12C315.507,317.099 315.605,317.088 315.703,317.088C316.448,317.088 317.061,317.701 317.061,318.446C317.061,318.973 316.755,319.454 316.277,319.677L316.277,319.675ZM74,172L214,172C239.224,172.029 259.971,192.776 260,218L260,266.246L218.808,304C211.994,296.366 202.233,291.996 192,292L143.056,292L129.114,284.073C129.34,283.491 129.535,282.898 129.697,282.295C134.409,273.262 133.161,262.216 126.552,254.462L125.452,253.18C122.091,249.257 118.266,245.756 114.062,242.754C113.995,242.699 113.925,242.646 113.855,242.597C107.797,238.306 100.552,236 93.128,236C81.507,236 70.583,241.649 63.866,251.132C62.146,253.556 60.832,256.243 59.975,259.088L56.824,269.459C55.581,273.53 53.057,277.095 49.63,279.62L46.13,282.18C43.052,284.437 40.476,287.308 38.564,290.611C38.298,291.069 38.05,291.532 37.812,292L28,292L28,218C28.029,192.776 48.776,172.029 74,172ZM115.818,292L102.948,287.444C101.266,286.848 99.379,287.446 98.348,288.902C97.444,290.187 95.968,290.954 94.397,290.954C91.747,290.954 89.567,288.773 89.567,286.124C89.567,283.474 91.747,281.294 94.397,281.294C94.491,281.294 94.585,281.297 94.679,281.302C94.752,281.306 94.826,281.308 94.899,281.308C97.093,281.308 98.899,279.502 98.899,277.308C98.899,277.297 98.899,277.286 98.899,277.275C98.862,271.256 96.854,265.412 93.184,260.641L94.612,258.624C96.352,256.173 99.801,255.586 102.254,257.324L116.418,267.361C119.126,269.193 121.103,271.922 122,275.065C122.77,277.9 122.211,280.938 120.482,283.313C120.003,283.989 119.746,284.797 119.746,285.626C119.746,287.062 120.52,288.393 121.769,289.103L126.869,292.003L115.818,292ZM35.186,300C35.112,300.454 35.047,300.911 34.996,301.37C34.403,306.405 31.896,311.024 27.996,314.264L27.996,300L35.186,300ZM32.366,321.045C38.27,316.464 42.085,309.692 42.945,302.269C43.573,296.823 46.443,291.877 50.86,288.63L54.36,286.075C59.181,282.523 62.731,277.509 64.481,271.782L67.631,261.4C68.24,259.381 69.173,257.473 70.393,255.753C79.177,243.355 96.566,240.312 109.039,248.99C109.1,249.04 109.163,249.088 109.228,249.134C112.98,251.789 116.389,254.897 119.378,258.388L120.484,259.673C120.938,260.209 121.358,260.773 121.742,261.361C121.508,261.183 121.286,260.994 121.042,260.823L106.878,250.787C100.841,246.522 92.366,247.968 88.084,253.993L84.84,258.571C83.725,260.145 83.899,262.313 85.252,263.688C88.001,266.473 89.852,270.02 90.565,273.867C85.234,275.544 81.584,280.519 81.584,286.107C81.584,293.146 87.376,298.938 94.415,298.938C97.471,298.938 100.428,297.846 102.751,295.861L109.02,298.08L107.7,301.5L107.649,301.64C105.599,307.594 101.774,312.781 96.692,316.5C89.898,321.473 84.9,328.523 82.458,336.581L82.232,337.313C80.524,342.947 77.242,347.979 72.774,351.813L60.535,362.311L17.982,332.16L32.366,321.045ZM40,444C38.101,444 36.45,445.353 36.078,447.216L28.721,484L28,484L28,349.063L58.458,370.644C59.951,371.701 61.987,371.606 63.375,370.415L77.986,357.874C83.604,353.056 87.731,346.733 89.881,339.652L90.107,338.923C92.044,332.509 96.019,326.898 101.428,322.943C107.8,318.279 112.601,311.78 115.186,304.318L116.859,300L169.407,300C160.936,306.818 156,317.125 156,328L156,444L40,444ZM176,444C174.101,444 172.45,445.353 172.078,447.216L164.721,484L164,484L164,328C164,312.64 176.64,300 192,300C207.36,300 220,312.64 220,328L220,444L176,444ZM260,484L259.279,484L252.879,452L260,452L260,484ZM396,484L395.279,484L387.922,447.216C387.55,445.353 385.899,444 384,444L340,444L340,328C340,312.64 352.64,300 368,300C383.36,300 396,312.64 396,328L396,484ZM409.393,378.771L404,370.385L404,359.4L414.687,376.024L409.393,378.771ZM441.393,402.771L404,344.605L404,328C404,308.251 387.749,292 368,292C348.251,292 332,308.251 332,328L332,329.653L328.019,334.031C327.619,333.455 327.155,332.927 326.636,332.455C328.157,328.844 327.24,324.642 324.353,321.993C324.82,320.863 325.06,319.651 325.06,318.428C325.06,313.302 320.842,309.084 315.716,309.084C315.031,309.084 314.348,309.16 313.679,309.309L296.11,313.217L297.453,310.885C299.434,307.439 299.329,303.16 297.181,299.816L334.229,263.428C341.546,256.113 351.479,252 361.825,252C374.435,252 386.294,258.111 393.612,268.381L467.782,372.491C468.261,373.162 468.935,373.67 469.713,373.943L485.953,379.656L441.393,402.771Z" style="fill-rule:nonzero;"/>
        </g>
    </g>
</svg>
