<?xml version="1.0" encoding="UTF-8" standalone="no"?>
<!DOCTYPE svg PUBLIC "-//W3C//DTD SVG 1.1//EN" "http://www.w3.org/Graphics/SVG/1.1/DTD/svg11.dtd">
<svg width="100%" height="100%" viewBox="0 0 480 476" version="1.1" xmlns="http://www.w3.org/2000/svg" xmlns:xlink="http://www.w3.org/1999/xlink" xml:space="preserve" xmlns:serif="http://www.serif.com/" style="fill-rule:evenodd;clip-rule:evenodd;stroke-linejoin:round;stroke-miterlimit:2;">
    <g transform="matrix(1,0,0,1,-16.06,-16.0163)">
        <g>
            <path d="M494.772,105.115C473.772,84.36 449.229,72.93 425.65,72.93C404.392,72.93 386.031,81.974 372.884,98.657L373.811,94.95C373.974,94.297 373.97,93.613 373.798,92.962L372.328,87.373L377.018,87.729C378.745,87.86 380.37,86.854 381.024,85.25L387.284,69.89C387.801,68.621 387.631,67.171 386.835,66.056L386.954,66.074C388.629,66.33 390.293,65.495 391.089,64L400.199,46.93C400.95,45.524 400.793,43.798 399.799,42.551L399.025,41.582L402.599,40.273C403.377,39.988 404.047,39.469 404.517,38.787L415.887,22.287C416.347,21.619 416.594,20.827 416.594,20.016C416.594,17.822 414.788,16.016 412.594,16.016C412.227,16.016 411.863,16.067 411.51,16.166C373.24,26.855 348.446,64.524 353.762,103.902C352.41,104.314 351.123,104.917 349.941,105.693C323.108,84.488 285.525,82.688 256.787,101.23C244.049,92.83 228.733,88.43 211.803,88.43C193.826,88.421 176.36,94.465 162.234,105.583C161.009,104.8 159.675,104.203 158.276,103.809C163.543,64.46 138.753,26.846 100.516,16.169C100.163,16.07 99.799,16.019 99.432,16.019C97.238,16.019 95.432,17.825 95.432,20.019C95.432,20.83 95.679,21.622 96.139,22.29L107.509,38.79C107.979,39.472 108.649,39.991 109.427,40.276L113,41.585L112.226,42.554C111.232,43.801 111.075,45.527 111.826,46.933L120.931,64C121.728,65.494 123.392,66.328 125.066,66.071L125.185,66.053C124.389,67.168 124.219,68.618 124.736,69.887L131,85.25C131.653,86.852 133.275,87.857 135,87.729L139.69,87.373L138.22,92.962C138.048,93.613 138.044,94.297 138.207,94.95L139.156,98.744C126.006,82.2 107.308,72.93 86.37,72.93C62.792,72.93 38.243,84.36 17.248,105.115C16.488,105.866 16.06,106.891 16.06,107.96C16.06,110.154 17.866,111.96 20.06,111.96C20.166,111.96 20.273,111.955 20.379,111.947L43.859,110.067C44.68,110.001 45.461,109.683 46.095,109.157L50.526,105.478L50.572,106.944C50.635,108.989 52.258,110.673 54.3,110.811L76.34,112.301C77.981,112.415 79.532,111.503 80.229,110.013L82.812,104.526L83.846,109.773C84.192,111.53 85.678,112.85 87.463,112.988L107.313,114.518C109.36,114.672 111.211,113.23 111.562,111.207L112.151,107.774L114.883,112.313C115.316,113.032 115.964,113.597 116.736,113.927L124.264,117.15C81.914,118.888 45.577,148.689 35.584,189.88L32.594,202.11C32.518,202.421 32.479,202.741 32.479,203.061C32.479,205.255 34.285,207.061 36.479,207.061C37.586,207.061 38.645,206.602 39.401,205.793L64.431,179.043C64.981,178.454 65.341,177.713 65.463,176.916L66.229,171.916L70.315,175.051C71.772,176.17 73.821,176.149 75.254,175L93.294,160.52C94.528,159.529 95.063,157.895 94.654,156.366L94.284,154.983L96.329,156.421C97.659,157.357 99.434,157.392 100.8,156.51L120.32,143.9C121.598,143.073 122.297,141.586 122.12,140.075L121.853,137.8L127.61,138.229C127.814,138.243 128.019,138.24 128.223,138.223L98.7,185.316C75.118,222.937 56.495,263.447 43.293,305.84L43.271,305.912C27.839,355.479 19.993,407.096 20,459.01L20,488C20,490.194 21.806,492 24,492L88,492C88,492 88,492 88.001,492C90.195,492 92.001,490.194 92.001,488C92.001,487.76 91.979,487.52 91.936,487.284C84.322,445.407 82.006,402.739 85.045,360.284C85.183,358.364 83.916,356.604 82.052,356.124L81.08,355.874C80.972,355.846 80.862,355.823 80.751,355.804L40.086,348.922C42.634,337.468 45.589,326.101 48.95,314.822L124.057,393.291C123.865,395.493 124.119,397.711 124.802,399.813C126.381,404.777 130.248,408.694 135.191,410.338L144.985,413.644C194.476,454.972 263.109,465.376 322.625,440.573C324.525,439.782 326.451,438.935 328.425,438.025L362.172,483.649C365.985,488.849 373.355,490.073 378.644,486.383L410.271,464.516C412.015,463.311 412.513,460.917 411.395,459.116C408.152,453.859 401.835,451.29 395.843,452.792L390.543,454.108L362.8,417.03C368.327,412.714 373.586,408.065 378.549,403.111L400.957,379.952C406.913,379.47 411.648,374.609 411.972,368.642L464.163,318.365C467.804,330.983 470.951,343.733 473.605,356.616L431.254,363.784C430.75,363.869 430.267,364.05 429.831,364.317L429.386,364.59C428.135,365.359 427.404,366.757 427.486,368.223C429.707,408.063 427.225,448.025 420.091,487.284C420.048,487.52 420.026,487.76 420.026,488C420.026,490.192 421.828,491.996 424.02,492L488.02,492C490.214,492 492.02,490.194 492.02,488L492.02,459.01C492.054,362.201 464.771,267.32 413.32,185.315L383.795,138.222C383.999,138.24 384.204,138.243 384.408,138.229L390.165,137.8L389.898,140.075C389.721,141.586 390.42,143.073 391.698,143.9L411.218,156.51C412.584,157.392 414.359,157.357 415.689,156.421L417.734,154.983L417.364,156.366C416.955,157.895 417.49,159.529 418.724,160.52L436.766,175C438.198,176.15 440.248,176.172 441.705,175.054L445.791,171.919L446.556,176.919C446.678,177.716 447.038,178.457 447.589,179.046L472.619,205.796C473.375,206.605 474.434,207.064 475.541,207.064C477.735,207.064 479.541,205.258 479.541,203.064C479.541,202.744 479.502,202.424 479.426,202.113L476.436,189.883C466.445,148.686 430.101,118.882 387.745,117.152L395.282,113.931C396.055,113.601 396.704,113.036 397.137,112.316L399.869,107.777L400.458,111.21C400.811,113.231 402.661,114.673 404.707,114.521L424.557,112.991C426.342,112.853 427.828,111.533 428.174,109.776L429.208,104.529L431.791,110.016C432.491,111.504 434.04,112.415 435.68,112.304L457.72,110.814C459.762,110.676 461.385,108.992 461.448,106.947L461.494,105.481L465.925,109.16C466.559,109.686 467.34,110.004 468.161,110.07L491.641,111.95C491.747,111.958 491.854,111.963 491.96,111.963C494.154,111.963 495.96,110.157 495.96,107.963C495.96,106.894 495.532,105.869 494.772,105.118L494.772,105.115ZM32.917,388.518L75.762,395.373C75.745,403.395 75.916,411.413 76.274,419.427L30.109,412.827C30.851,404.701 31.787,396.598 32.917,388.518ZM83.229,484L28,484L28,459.01C28,456.867 28.014,454.725 28.041,452.584L79.633,459.573C80.64,467.74 81.839,475.883 83.229,484ZM28.214,444.534C28.439,436.613 28.848,428.708 29.439,420.818L76.7,427.57C77.18,435.518 77.843,443.451 78.69,451.37L28.214,444.534ZM76.824,363.255C76.306,371.255 75.978,379.265 75.841,387.284L34.1,380.605C35.349,372.624 36.787,364.674 38.412,356.754L76.824,363.255ZM484.02,484L428.791,484C429.724,478.579 430.567,473.143 431.32,467.692L484.02,460.553L484.02,484ZM483.975,452.486L432.4,459.473C433.375,451.54 434.168,443.589 434.78,435.622L483.119,428.716C483.588,436.619 483.874,444.543 483.975,452.486ZM482.569,420.713L435.334,427.46C435.817,419.434 436.108,411.401 436.209,403.36L480.135,396.332C481.141,404.425 481.952,412.552 482.569,420.713ZM479.091,388.392L436.254,395.246C436.235,387.212 436.031,379.181 435.644,371.154L475.151,364.467C476.655,372.403 477.968,380.378 479.091,388.392ZM373.137,114.26C373.139,114.26 373.142,114.26 373.144,114.26C376.901,114.26 379.993,117.352 379.993,121.109C379.993,124.866 376.901,127.958 373.144,127.958C369.387,127.958 366.295,124.866 366.295,121.109C366.295,118.82 367.442,116.678 369.347,115.409C370.47,114.661 371.788,114.262 373.137,114.26ZM402.06,28.252L398.649,33.202L391.049,35.984C389.476,36.56 388.425,38.065 388.425,39.74C388.425,40.647 388.733,41.527 389.299,42.236L391.899,45.489L385.362,57.737L378.514,56.687C378.316,56.657 378.116,56.642 377.915,56.642C375.721,56.642 373.915,58.448 373.915,60.642C373.915,61.489 374.184,62.315 374.684,63L379.032,68.936L374.716,79.527L367.332,78.967C367.232,78.959 367.131,78.956 367.03,78.956C364.836,78.956 363.03,80.761 363.03,82.956C363.03,83.299 363.074,83.642 363.162,83.974L365.8,94.005L363.253,104.2C362.781,104.026 362.303,103.878 361.817,103.752C357.194,72.563 373.59,41.802 402.06,28.252ZM354.3,112.4C356.415,110.996 359.142,110.875 361.373,112.085C359.891,114.028 358.91,116.307 358.517,118.719C356.139,118.153 353.659,118.182 351.295,118.804C351.035,116.281 352.193,113.812 354.3,112.4ZM351.294,127.447C352.42,126.696 353.743,126.295 355.096,126.295C358.854,126.295 361.947,129.388 361.947,133.146C361.947,134.716 361.407,136.239 360.419,137.459C359.119,139.061 357.163,139.992 355.1,139.992C351.341,139.992 348.249,136.9 348.249,133.141C348.249,130.854 349.395,128.712 351.298,127.442L351.294,127.447ZM350.604,157.268C350.916,158.418 351.726,159.37 352.811,159.863L357.047,161.785L357.638,179.825L347.738,184.213C346.296,184.854 345.363,186.29 345.363,187.868C345.363,189.647 346.55,191.222 348.26,191.713L357.728,194.413L360.08,211.644L351.912,214.862C350.386,215.463 349.378,216.944 349.378,218.584C349.378,219.773 349.909,220.903 350.824,221.662L358.961,228.411L364.452,247.68C338.882,220.672 333.186,180.186 350.313,147.172C351.86,147.705 353.485,147.981 355.121,147.988C355.209,147.988 355.297,147.98 355.385,147.979L351.2,153.908C350.509,154.882 350.288,156.115 350.6,157.268L350.604,157.268ZM300.22,96.43C316.34,96.42 332.007,101.817 344.7,111.754C344.398,112.386 344.14,113.039 343.93,113.707L335.485,111.132L329.185,104.889C328.436,104.145 327.422,103.727 326.366,103.727C325.059,103.727 323.832,104.367 323.085,105.439L318.923,111.396L307.287,109.596L304.418,102.129C303.825,100.587 302.336,99.564 300.684,99.564L300.673,99.564C299.017,99.568 297.527,100.601 296.942,102.15L294.264,109.24L280.621,108.54L279.104,103.795C278.519,101.966 276.695,100.803 274.79,101.045C282.918,97.983 291.534,96.42 300.22,96.43ZM340.332,134.7L333.786,139.427L319.018,139.436C316.824,139.437 315.02,141.242 315.02,143.436C315.02,144.6 315.528,145.708 316.41,146.467L324.439,153.38L316.779,164.162L303.148,159.243C302.712,159.086 302.253,159.005 301.79,159.005C299.595,159.005 297.79,160.811 297.79,163.005C297.79,163.798 298.025,164.573 298.466,165.231L307.097,178.122L298.108,191.043L292.844,188.096C292.247,187.762 291.574,187.586 290.89,187.586C288.696,187.586 286.89,189.392 286.89,191.586C286.89,191.791 286.906,191.994 286.937,192.196L288.863,204.723L284.172,214.16C283.332,208.642 282.903,203.069 282.89,197.488C282.89,175.188 290.19,155.907 303.431,143.206C313.519,133.534 326.578,128.061 341.531,127.126C340.479,129.503 340.066,132.114 340.332,134.7ZM273.024,101.722C272.858,101.835 272.701,101.96 272.554,102.097L266.369,107.935L265.486,107.958C264.886,107.42 264.294,106.883 263.686,106.367C266.681,104.594 269.802,103.043 273.024,101.726L273.024,101.722ZM211.8,96.43C223.032,96.43 238.355,98.61 252.47,107.942L245.618,107.908L239.466,102.101C238.724,101.4 237.741,101.01 236.72,101.01C234.985,101.01 233.438,102.139 232.91,103.792L231.393,108.537L217.75,109.237L215.072,102.147C214.487,100.598 212.997,99.565 211.341,99.561L211.33,99.561C209.678,99.561 208.189,100.584 207.596,102.126L204.727,109.593L193.091,111.393L188.929,105.436C188.182,104.364 186.955,103.724 185.648,103.724C184.592,103.724 183.578,104.142 182.829,104.886L176.529,111.13L168.392,113.612C168.167,112.909 167.891,112.223 167.565,111.56C180.217,101.744 195.787,96.418 211.8,96.43ZM223.41,188.3C222.155,187.431 220.507,187.353 219.176,188.1L213.912,191.047L204.923,178.126L213.554,165.235C213.995,164.577 214.23,163.802 214.23,163.009C214.23,160.815 212.425,159.009 210.23,159.009C209.767,159.009 209.308,159.09 208.872,159.247L195.241,164.166L187.582,153.385L195.618,146.472C196.501,145.713 197.009,144.604 197.009,143.44C197.009,141.247 195.205,139.442 193.012,139.44L178.235,139.431L171.671,134.689C171.933,132.105 171.516,129.496 170.463,127.122C185.625,128.063 198.84,133.686 208.971,143.58C221.971,156.28 229.13,175.422 229.13,197.49C229.117,203.072 228.688,208.645 227.848,214.163L223.156,204.725L225.083,192.198C225.317,190.688 224.665,189.171 223.41,188.3ZM162.6,217.958C162.377,216.563 161.431,215.386 160.116,214.868L151.948,211.65L154.3,194.419L163.768,191.719C165.478,191.228 166.665,189.653 166.665,187.874C166.665,186.296 165.732,184.86 164.29,184.219L154.39,179.831L154.981,161.793L159.225,159.87C160.653,159.223 161.574,157.794 161.574,156.227C161.574,155.399 161.318,154.592 160.84,153.917L156.651,147.992C156.731,147.992 156.811,148 156.891,148C158.533,147.993 160.162,147.715 161.714,147.179C178.847,180.192 173.153,220.683 147.58,247.691L153.071,228.423L161.208,221.674C162.296,220.77 162.826,219.354 162.6,217.958ZM162.61,136.948C161.341,138.852 159.198,139.999 156.91,139.999C154.853,139.999 152.901,139.072 151.601,137.478L151.584,137.458C150.597,136.239 150.058,134.717 150.058,133.148C150.058,129.39 153.151,126.297 156.909,126.297C160.668,126.297 163.76,129.39 163.76,133.148C163.76,134.5 163.36,135.823 162.61,136.948ZM158.06,112.4C160.193,113.829 161.351,116.341 161.052,118.89C158.587,118.183 155.981,118.125 153.487,118.722C153.104,116.372 152.161,114.147 150.739,112.237C153.003,110.879 155.858,110.942 158.06,112.4ZM137.3,79.531L132.988,68.94L137.336,63C137.838,62.314 138.109,61.487 138.109,60.637C138.109,58.443 136.303,56.637 134.109,56.637C133.906,56.637 133.703,56.652 133.503,56.683L126.655,57.733L120.118,45.485L122.718,42.232C123.284,41.523 123.592,40.643 123.592,39.736C123.592,38.061 122.541,36.556 120.968,35.98L113.371,33.2L109.96,28.25C138.458,41.813 154.855,72.62 150.19,103.834C149.718,103.967 149.251,104.124 148.79,104.305L146.215,94.005L148.854,83.978C148.942,83.646 148.986,83.303 148.986,82.96C148.986,80.765 147.18,78.96 144.986,78.96C144.885,78.96 144.784,78.963 144.684,78.971L137.3,79.531ZM142.649,115.409C144.557,116.679 145.706,118.824 145.706,121.116C145.706,124.877 142.611,127.972 138.85,127.972C135.089,127.972 131.994,124.877 131.994,121.116C131.994,117.355 135.089,114.26 138.85,114.26C138.853,114.26 138.856,114.26 138.859,114.26C140.209,114.261 141.529,114.661 142.653,115.409L142.649,115.409ZM117.613,129.461C117.514,129.454 117.415,129.45 117.316,129.45C115.121,129.45 113.316,131.256 113.316,133.45C113.316,133.606 113.325,133.761 113.343,133.916L113.883,138.532L98.721,148.326L89.871,142.1C89.197,141.626 88.394,141.372 87.57,141.372C85.376,141.372 83.57,143.178 83.57,145.372C83.57,145.721 83.616,146.068 83.706,146.405L86.251,155.915L72.694,166.8L65.734,161.461C65.036,160.925 64.18,160.635 63.3,160.635C61.333,160.635 59.644,162.085 59.346,164.029L57.746,174.486L44.052,189.113C54.117,152.656 86.788,126.7 124.577,125.141C125.09,126.962 125.946,128.669 127.1,130.169L117.613,129.461ZM121.067,107.081L113.453,94.428C112.73,93.227 111.427,92.49 110.025,92.49C108.085,92.49 106.411,93.901 106.083,95.813L104.29,106.262L91.103,105.245L88.3,91.026C87.931,89.159 86.279,87.801 84.376,87.801C82.829,87.801 81.416,88.698 80.757,90.097L74.15,104.135L58.45,103.073L58.262,97.046C58.195,94.9 56.411,93.171 54.264,93.171C53.331,93.171 52.427,93.497 51.709,94.093L41.952,102.193L31.452,103.034C48.825,88.708 68,80.93 86.37,80.93C106.322,80.93 123.413,90.04 135.176,106.744C132.733,107.365 130.488,108.598 128.655,110.328L121.067,107.081ZM105.475,189.565L139.1,135.94C140.17,135.923 141.234,135.791 142.276,135.547C142.538,137.165 143.064,138.728 143.834,140.175L137.187,152.545C129.75,166.374 122.978,180.484 116.873,194.874L104.514,191.132C104.838,190.611 105.153,190.085 105.479,189.565L105.475,189.565ZM100.204,198.186L113.77,202.294C110.336,210.724 107.129,219.237 104.149,227.832L86.535,222.5C90.868,214.276 95.426,206.171 100.208,198.186L100.204,198.186ZM82.8,229.724L101.6,235.417C99.008,243.291 96.601,251.224 94.378,259.217L71.436,253.654C75.012,245.582 78.8,237.605 82.8,229.724ZM68.21,261.106L92.325,266.953C90.2,275.138 88.272,283.38 86.54,291.678L58.2,286.644C61.305,278.043 64.641,269.531 68.209,261.106L68.21,261.106ZM127.38,384.845C127.326,384.905 127.272,384.963 127.221,385.026L72.988,328.366L81.702,333.938C86.469,337.116 125.645,362.581 137.847,370.511L127.38,384.845ZM118.965,340.958C119.207,343.274 120.041,345.49 121.385,347.392L120.378,348.641L110.5,341.2L110.368,341.105C108.579,339.869 107.509,337.828 107.509,335.653C107.509,333.282 108.781,331.085 110.838,329.905L114.774,327.65C115.291,327.352 115.736,326.942 116.074,326.45L121.636,318.399L123.521,319.699C124.97,320.674 125.904,322.253 126.061,323.992C126.203,325.478 125.656,326.949 124.578,327.982C124.493,328.064 124.412,328.149 124.335,328.238L122.235,330.644C119.767,333.481 118.582,337.217 118.964,340.958L118.965,340.958ZM137.751,402.758C134.331,401.606 132.014,398.38 132.014,394.772C132.014,393.221 132.442,391.699 133.251,390.376L146.8,371.817C147.3,371.132 147.57,370.306 147.57,369.458C147.57,368.105 146.883,366.841 145.749,366.104C145.536,365.966 137.098,360.483 126.608,353.662L129.8,349.7C130.373,348.989 130.686,348.103 130.686,347.189C130.686,345.938 130.098,344.756 129.1,344C127.711,342.949 126.893,341.305 126.893,339.564C126.893,338.22 127.381,336.92 128.264,335.907L130.256,333.622C130.784,333.091 131.265,332.515 131.692,331.9L134.355,333.741C134.47,333.817 134.578,333.9 134.755,334.041C138.863,337.181 140.362,342.729 138.396,347.511L136.862,350.78C136.6,351.323 136.464,351.918 136.464,352.52C136.464,354.715 138.269,356.52 140.464,356.52C142.028,356.52 143.454,355.603 144.103,354.18L145.681,350.82L145.688,350.804L153.909,355.844C155.676,356.927 158.008,356.466 159.23,354.792L171.23,338.359C171.73,337.674 172,336.848 172,336L172,293.23C172,293.23 172,293.23 172,293.229C172,291.035 170.194,289.229 168,289.229C166.761,289.229 165.59,289.805 164.833,290.786L137.5,326.192L134.041,323.8C134.034,323.651 134.041,323.5 134.029,323.354C133.694,319.388 131.652,315.757 128.436,313.412L159.6,272.643C162.634,268.907 167.198,266.734 172.011,266.734C180.781,266.734 187.998,273.95 188,282.72L188,336C188,337.563 188.916,338.988 190.337,339.638L210.437,348.822L196.876,395.239L161.2,384.039C160.812,383.917 160.407,383.855 160,383.855C157.806,383.855 156,385.661 156,387.855C156,389.597 157.138,391.148 158.8,391.671L198.369,404.097C198.757,404.219 199.161,404.281 199.567,404.281C201.339,404.281 202.91,403.103 203.407,401.402L219.841,345.151C220.189,343.959 219.963,342.671 219.23,341.669L214.256,334.869C214.336,334.919 214.415,334.969 214.492,335.028L216.735,336.684C217.423,337.192 218.256,337.466 219.111,337.466C220.87,337.466 222.431,336.306 222.94,334.623L226.15,324L243.462,330.7L223.639,402.743C220.544,413.992 210.238,421.845 198.571,421.845C195.743,421.845 192.934,421.383 190.255,420.479L137.751,402.758ZM143.451,331.573L164,304.958L164,334.7L154.945,347.1L147.245,342.378C147.101,338.477 145.779,334.709 143.454,331.573L143.451,331.573ZM279.716,389.873C280.426,391.126 281.76,391.902 283.2,391.9L300,391.9L300,415.9L243.641,415.9L259.423,367.63L287.4,345.843L302.263,365.033L285.702,376.625C285.242,376.947 284.855,377.363 284.566,377.844L279.766,385.844C279.027,387.079 279.009,388.621 279.719,389.873L279.716,389.873ZM235.316,415.599L226.845,414.751C228.863,411.718 230.382,408.381 231.345,404.868L242.712,363.56L251.08,367.383L235.316,415.599ZM319.544,433.188C271.298,453.338 216.236,449.385 171.362,422.551L187.689,428.062C191.209,429.257 194.9,429.869 198.617,429.874C204.165,429.866 209.626,428.492 214.517,425.874C216.517,424.812 218.408,423.556 220.162,422.123L237.721,423.881C237.853,423.894 237.985,423.901 238.121,423.901L317.979,423.901L323.563,431.45C322.209,432.06 320.876,432.637 319.551,433.188L319.544,433.188ZM385.724,461.029C386.686,462.314 388.333,462.901 389.891,462.514L397.767,460.559C399.028,460.244 400.357,460.33 401.567,460.805L374.09,479.805C372.328,481.037 369.869,480.629 368.599,478.894L332.899,430.63C332.881,430.606 332.864,430.582 332.846,430.559L323.206,417.525C322.455,416.507 321.265,415.904 320,415.9L308,415.9L308,391.9L315.975,391.9C327.304,391.926 337.987,397.275 344.796,406.33L353.99,418.614C354.002,418.631 354.009,418.65 354.022,418.667C354.035,418.684 354.048,418.692 354.06,418.707L385.724,461.029ZM372.841,397.5C368.162,402.169 363.206,406.552 358,410.625L351.2,401.538C342.879,390.47 329.822,383.932 315.975,383.9L290.265,383.9L290.992,382.689L328.565,356.389L351.852,365.157C343.769,367.657 335.565,369.847 327.345,371.672C325.515,372.072 324.199,373.707 324.199,375.58C324.199,377.774 326.005,379.58 328.199,379.58C328.495,379.58 328.79,379.547 329.078,379.482C340.832,376.867 352.429,373.588 363.812,369.66L383.53,377.084C385.84,377.951 388.216,378.629 390.636,379.11L372.841,397.5ZM404,368C404,370.194 402.194,372 400,372L399.544,372C395.037,372.004 390.566,371.19 386.349,369.6L329.41,348.159C328.176,347.695 326.79,347.87 325.71,348.625L308.829,360.44L293.716,340.927L304.593,332.458C314.529,324.951 327.696,323.153 339.281,327.72L390.546,347.726C391.01,347.907 391.503,348 392,348C393.761,348 395.324,346.837 395.831,345.151L400.071,336.744C400.918,335.053 402.299,333.688 404,332.862L404,368ZM412,357.5L412,348.4C418.1,345.041 427.047,339.761 435.984,334.391L412,357.5ZM461.494,309.462C455.025,313.462 427.64,330.327 412,339.232L412,328C412,325.806 410.194,324 408,324L407.775,324C401.502,323.981 395.735,327.531 392.927,333.141L390.009,338.929L342.189,320.268C328.005,314.682 311.888,316.897 299.736,326.101L255.453,360.582L244.868,355.747L251.176,332.825C252.271,328.885 250.168,324.708 246.35,323.242L229.038,316.542C228.117,316.185 227.138,316.002 226.15,316.002C222.633,316.002 219.509,318.322 218.492,321.688L216.821,327.216C213.193,325.715 209.036,326.19 205.84,328.471L205.085,329.008C204.031,329.758 203.404,330.974 203.404,332.267C203.404,333.116 203.674,333.943 204.175,334.628L206.963,338.441L196,333.43L196,282.72C196,282.718 196,282.716 196,282.715C196,269.557 185.173,258.731 172.016,258.731C164.768,258.731 157.897,262.016 153.347,267.658C153.325,267.685 153.304,267.713 153.282,267.741L121.73,309.015C120.085,308.513 118.293,309.143 117.324,310.564L110,321.16L106.852,322.96C104.12,324.534 101.964,326.944 100.705,329.835C99.859,331.786 99.452,333.9 99.513,336.026C92.795,331.647 87.606,328.257 86.072,327.235L51.849,305.353C53.025,301.652 54.242,297.964 55.5,294.291L84.976,299.526C84.224,303.453 83.504,307.389 82.842,311.339C82.479,313.503 83.961,315.582 86.125,315.945C86.345,315.982 86.569,316 86.792,316C88.736,315.997 90.41,314.578 90.731,312.661C99.879,257.973 117.954,205.159 144.231,156.333L147.926,149.457C148,149.595 148.082,149.729 148.172,149.857L151.506,154.573L149.406,155.524C148.021,156.152 147.109,157.517 147.059,159.037L146.299,182.257C146.246,183.883 147.19,185.386 148.677,186.045L150.951,187.053L149.589,187.442C148.066,187.877 146.938,189.177 146.724,190.747L143.594,213.677C143.346,215.498 144.383,217.268 146.094,217.94L150.894,219.829L147.011,223.049C146.39,223.564 145.939,224.256 145.718,225.032L135.678,260.262C135.577,260.618 135.525,260.987 135.525,261.357C135.525,263.551 137.331,265.357 139.525,265.357C140.579,265.357 141.591,264.941 142.34,264.199L151.28,255.34C181.144,225.725 188.111,179.716 168.354,142.587C168.427,142.498 168.494,142.401 168.565,142.31L174.603,146.671C175.284,147.163 176.102,147.428 176.942,147.428L182.242,147.428L179.6,149.7C178.043,151.04 177.758,153.373 178.947,155.048L190.477,171.278C191.514,172.738 193.411,173.333 195.096,172.725L200.127,170.909L196.754,175.946C195.84,177.311 195.856,179.107 196.794,180.456L209.415,198.596C210.584,200.277 212.865,200.802 214.652,199.802L215.928,199.088L215.054,204.764C214.929,205.58 215.059,206.414 215.426,207.153L225.916,228.253C226.591,229.61 227.982,230.472 229.498,230.472C231.337,230.472 232.951,229.203 233.385,227.415C235.814,217.624 237.07,207.579 237.128,197.492C237.128,173.251 229.113,152.073 214.559,137.858C204.102,127.709 190.576,121.298 176.1,119.631L179.82,118.496C180.441,118.306 181.007,117.968 181.469,117.511L185.095,113.916L187.964,118.021C188.837,119.27 190.35,119.916 191.856,119.683L208.246,117.143C209.598,116.933 210.752,116.043 211.299,114.789C211.914,116.41 213.514,117.457 215.246,117.371L234.565,116.381C236.224,116.296 237.665,115.186 238.171,113.604L238.596,112.276L241.275,114.805C242.011,115.502 242.986,115.894 244,115.9L263.98,116L264,116C264.034,116 264.066,115.993 264.1,115.992L264.1,116L268.1,115.9C269.086,115.876 270.029,115.488 270.746,114.811L273.425,112.282L273.85,113.61C274.356,115.192 275.797,116.302 277.456,116.387L296.775,117.377C298.507,117.466 300.109,116.418 300.722,114.795C301.269,116.049 302.423,116.939 303.775,117.149L320.165,119.689C321.671,119.922 323.184,119.276 324.057,118.027L326.926,113.922L330.552,117.517C331.014,117.975 331.58,118.313 332.202,118.502L335.902,119.631C321.64,121.282 308.297,127.533 297.9,137.434C283.065,151.658 274.9,172.986 274.9,197.49C274.958,207.577 276.214,217.622 278.643,227.413C279.077,229.201 280.691,230.47 282.53,230.47C284.046,230.47 285.437,229.608 286.112,228.251L296.602,207.151C296.969,206.412 297.099,205.577 296.973,204.762L296.1,199.086L297.376,199.8C299.163,200.801 301.444,200.275 302.614,198.594L315.234,180.454C316.172,179.105 316.188,177.31 315.274,175.945L311.901,170.907L316.932,172.723C318.617,173.331 320.514,172.736 321.551,171.276L333.081,155.046C334.27,153.371 333.986,151.039 332.43,149.699L329.799,147.434L335.093,147.434C335.933,147.433 336.751,147.169 337.432,146.677L343.457,142.326C343.53,142.418 343.597,142.516 343.671,142.606C323.926,179.734 330.896,225.733 360.754,255.345L369.695,264.205C370.444,264.947 371.456,265.363 372.51,265.363C374.704,265.363 376.51,263.557 376.51,261.363C376.51,260.993 376.458,260.624 376.357,260.268L366.317,225.038C366.096,224.262 365.645,223.57 365.024,223.055L361.141,219.835L365.941,217.946C367.652,217.274 368.689,215.504 368.441,213.683L365.311,190.753C365.097,189.183 363.969,187.883 362.446,187.448L361.084,187.059L363.358,186.051C364.845,185.392 365.789,183.889 365.736,182.263L364.976,159.043C364.926,157.524 364.015,156.159 362.631,155.531L360.531,154.58L363.862,149.86C363.951,149.732 364.031,149.598 364.104,149.46L367.804,156.335C394.682,206.279 412.97,260.39 421.904,316.399C422.212,318.329 423.893,319.765 425.848,319.768C426.061,319.768 426.274,319.751 426.485,319.717C428.652,319.37 430.149,317.303 429.803,315.136C429.423,312.758 429.003,310.39 428.589,308.02L459.098,301.854C459.915,304.385 460.713,306.922 461.494,309.465L461.494,309.462ZM456.52,294.206L427.14,300.144C425.545,291.758 423.749,283.427 421.751,275.152L447.106,269.004C450.469,277.327 453.607,285.728 456.52,294.209L456.52,294.206ZM444.011,261.523L419.8,267.4C417.653,259.099 415.308,250.86 412.764,242.681L432.686,236.649C436.689,244.847 440.464,253.139 444.011,261.526L444.011,261.523ZM410.3,235.066C407.402,226.284 404.269,217.584 400.9,208.966L414.477,202.678C419.616,211.451 424.483,220.353 429.077,229.384L410.3,235.066ZM406.539,189.566C407.83,191.624 409.103,193.691 410.358,195.766L397.923,201.526C391.091,184.804 383.383,168.454 374.831,152.544L368.172,140.16C368.938,138.717 369.462,137.158 369.722,135.546C370.771,135.792 371.844,135.924 372.922,135.94L406.539,189.566ZM467.966,189.115L454.274,174.482L452.674,164.025C452.376,162.081 450.687,160.631 448.72,160.631C447.84,160.631 446.984,160.921 446.286,161.457L439.326,166.796L425.769,155.915L428.314,146.405C428.404,146.068 428.45,145.721 428.45,145.372C428.45,143.178 426.644,141.372 424.45,141.372C423.626,141.372 422.823,141.626 422.149,142.1L413.295,148.327L398.133,138.533L398.673,133.917C398.691,133.762 398.7,133.607 398.7,133.451C398.7,131.257 396.895,129.451 394.7,129.451C394.601,129.451 394.502,129.455 394.403,129.462L384.903,130.171C386.058,128.671 386.914,126.965 387.427,125.143C425.222,126.693 457.904,152.65 467.968,189.114L467.966,189.115ZM470.06,102.195L460.303,94.095C459.585,93.499 458.681,93.173 457.748,93.173C455.601,93.173 453.817,94.902 453.75,97.048L453.562,103.075L437.862,104.137L431.259,90.1C430.6,88.701 429.187,87.804 427.64,87.804C425.737,87.804 424.085,89.162 423.716,91.029L420.916,105.248L407.729,106.265L405.936,95.816C405.608,93.904 403.934,92.493 401.994,92.493C400.592,92.493 399.289,93.23 398.566,94.431L390.952,107.083L383.352,110.332C381.524,108.607 379.287,107.375 376.852,106.753C388.6,90.042 405.7,80.93 425.65,80.93C444.022,80.93 463.195,88.708 480.561,103.03L470.06,102.195Z" style="fill-rule:nonzero;"/>
        </g>
    </g>
</svg>
