<?xml version="1.0" encoding="UTF-8" standalone="no"?>
<!DOCTYPE svg PUBLIC "-//W3C//DTD SVG 1.1//EN" "http://www.w3.org/Graphics/SVG/1.1/DTD/svg11.dtd">
<svg width="100%" height="100%" viewBox="0 0 447 473" version="1.1" xmlns="http://www.w3.org/2000/svg" xmlns:xlink="http://www.w3.org/1999/xlink" xml:space="preserve" xmlns:serif="http://www.serif.com/" style="fill-rule:evenodd;clip-rule:evenodd;stroke-linejoin:round;stroke-miterlimit:2;">
    <g transform="matrix(1,0,0,1,-30,-20)">
        <g>
            <path d="M332,108C340.777,108 348,100.777 348,92C348,83.223 340.777,76 332,76C323.223,76 316,83.223 316,92C316.01,100.773 323.227,107.99 332,108ZM332,84C336.389,84 340,87.611 340,92C340,96.389 336.389,100 332,100C327.611,100 324,96.389 324,92C324.005,87.613 327.613,84.005 332,84Z" style="fill-rule:nonzero;"/>
            <path d="M475.885,479.046L431.911,300L448,300C450.194,300 452,298.194 452,296L452,56C452,53.806 450.194,52 448,52L371,52L363.889,23.046C363.451,21.262 361.837,19.998 360,20L344,20C342.164,20 340.553,21.263 340.115,23.046L333,52L256,52C253.806,52 252,53.806 252,56L252,64C252,66.194 253.806,68 256,68C258.194,68 260,66.194 260,64L260,60L444,60L444,156.8L379.925,111.038C378.538,110.047 376.662,110.047 375.275,111.038L332.118,141.859L325.7,127.894C324.063,124.329 320.835,121.738 317,120.91L311.29,119.677L291.947,101.746C291.414,91.864 283.146,84.017 273.25,84L270.731,84C263.949,79.138 256.829,74.767 249.424,70.92L233.844,62.83C233.274,62.534 232.641,62.379 231.999,62.379C229.805,62.379 227.999,64.185 227.999,66.379C227.999,67.318 228.33,68.228 228.933,68.948L240.2,82.405C241.042,83.413 241.917,84.405 242.787,85.397C236.259,88.147 231.995,94.576 232,101.66L232,175.354L212.056,115.528C208.987,106.272 200.271,99.988 190.52,100L144,100C142.926,99.998 141.895,100.431 141.145,101.2C140.936,101.413 140.72,101.618 140.503,101.822L140.503,94.867C147.391,92.296 151.988,85.685 152,78.333L152,63L154.877,63.841C155.242,63.948 155.62,64.002 156,64.002C158.194,64.002 160,62.196 160,60.002C160,60.001 160,60.001 160,60L160,50.87C159.989,40.523 151.477,32.011 141.13,32L137.657,32L136.248,30.591C134.16,28.499 131.679,26.841 128.948,25.712C122.371,23.032 114.906,23.58 108.79,27.19C105.842,24.495 101.989,23 97.995,23C89.218,23 81.995,30.223 81.995,39C81.995,47.777 89.218,55 97.995,55C97.997,55 98.078,55 98.078,55C99.068,62.306 101.917,69.237 106.349,75.128L108,77.328L108,102.247C107.675,101.956 107.341,101.678 107.03,101.367L106.83,101.167C106.08,100.417 105.061,99.997 104,100L64,100C48.646,100.018 36.018,112.646 36,128L36,217.09C36.042,236.303 49.323,253.133 68,257.642L68,312C68,314.194 69.806,316 72,316L82.107,316L83.9,327.645L30.21,486.721C30.071,487.133 30,487.565 30,488C30,490.194 31.806,492 34,492L112,492C114.194,492 116,490.194 116,488C116,486.664 115.331,485.413 114.219,484.672L92.761,470.367L136.737,338.438C138.94,331.806 139.538,324.746 138.482,317.838L138.2,316L154,316L155.87,320.488L129.051,487.365C129.017,487.575 129,487.787 129,488C129,490.194 130.806,492 133,492L208,492C210.194,492 212,490.194 212,488C212,486.664 211.331,485.413 210.219,484.672L188.351,470.093L210.187,331.8C211.009,326.553 210.874,321.199 209.787,316C209.787,316 224,316 224,316C226.195,316 228,314.194 228,312C228,311.429 227.878,310.865 227.642,310.345L191.152,230.077C189.069,225.504 187.994,220.535 188,215.51L188,191.11L196.423,217.18C201.574,233.126 216.517,244.002 233.274,244.002C254.518,244.002 272,226.52 272,205.276C272,205.274 272,205.272 272,205.27L272,124L278.75,124C281.351,124.002 283.895,123.233 286.059,121.791L301.183,132.256L303.627,137.572C305.265,141.137 308.492,143.727 312.327,144.555L324.621,147.211L313.595,155.085L287.12,136.175C286.442,135.69 285.629,135.43 284.795,135.43C282.601,135.43 280.795,137.236 280.795,139.43C280.795,140.721 281.42,141.935 282.47,142.685L343.516,186.285L307.516,211.997L284,211.997C281.806,211.997 280,213.803 280,215.997C280,218.191 281.806,219.997 284,219.997L444,219.997L444,275.997L288,275.997C285.806,275.997 284,277.803 284,279.997C284,282.191 285.806,283.997 288,283.997L444,283.997L444,291.997L260,291.997L260,283.997L272,283.997C274.194,283.997 276,282.191 276,279.997C276,277.803 274.194,275.997 272,275.997L260,275.997L260,248C260,245.806 258.194,244 256,244C253.806,244 252,245.806 252,248L252,296C252,298.194 253.806,300 256,300L272.089,300L228.115,479.046C228.038,479.358 228,479.679 228,480C228,482.194 229.805,484 232,484C232,484 248,484 248,484C249.836,484 251.447,482.737 251.885,480.954L276.679,380L340,380L340,456C340,458.194 341.806,460 344,460L360,460C362.194,460 364,458.194 364,456L364,380L427.321,380L452.115,480.954C452.553,482.737 454.164,484 456,484C456,484 472,484 472,484C474.195,484 476,482.194 476,480C476,479.679 475.962,479.358 475.885,479.046ZM341.242,52L347.137,28L356.863,28L362.758,52L341.242,52ZM303.573,124.181L291.089,115.542C291.461,114.586 291.72,113.589 291.86,112.572L303.919,123.751L303.573,124.181ZM256.261,84L252.3,84C250.834,82.431 249.384,80.835 247.978,79.206C250.786,80.717 253.543,82.329 256.261,84ZM105.7,50.278C105.628,48.135 103.846,46.412 101.702,46.412C101.284,46.412 100.867,46.478 100.469,46.607C99.669,46.868 98.833,47 97.992,47C93.603,47 89.992,43.389 89.992,39C89.992,34.612 93.603,31 97.992,31C100.736,31 103.295,32.412 104.759,34.734C105.492,35.891 106.769,36.593 108.138,36.593C109.107,36.593 110.044,36.241 110.773,35.603C116.485,30.588 125.221,30.873 130.595,36.249L133.175,38.829C133.924,39.578 134.941,39.999 136,40L141.13,40C147.091,40.007 151.993,44.909 152,50.87L152,54.663L150.091,54.104C149.475,53.72 148.765,53.512 148.039,53.504L137.123,50.311C135.114,49.723 132.966,50.807 132.245,52.772L130.667,57.072C124.624,57.742 119.999,62.908 119.999,68.988C119.999,70.004 120.129,71.016 120.384,72L114,72L112.748,70.33C108.391,64.532 105.929,57.527 105.7,50.278ZM116,80L128,80C129.743,79.976 131.287,78.836 131.823,77.177C132.404,75.386 131.645,73.416 130.014,72.477C128.765,71.767 127.991,70.437 127.991,69C127.991,66.806 129.797,65 131.991,65C131.994,65 131.997,65 132,65C132.231,64.998 132.461,65.017 132.688,65.059C134.604,65.425 136.522,64.339 137.194,62.507L138.467,59.039L144,60.658L144,78.333C143.994,83.634 139.634,87.994 134.333,88L128,88C125.806,88 124,89.806 124,92C124,94.194 125.806,96 128,96L132.5,96L132.5,106.7C130.082,107.558 127.536,107.997 124.97,108L123.035,108C120.645,107.997 118.271,107.616 116,106.872L116,80ZM64,108L102.394,108C108.023,113.163 115.396,116.021 123.035,116L124.97,116C132.599,115.979 139.955,113.127 145.605,108L190.52,108C196.834,107.992 202.478,112.062 204.465,118.055L214.359,147.734L184.937,155.6L182.727,148.759C182.2,147.111 180.658,145.984 178.928,145.984C176.981,145.984 175.305,147.41 174.992,149.331C174.981,149.355 174.971,149.379 174.963,149.404L168.088,196L141.657,196L143.92,193.737C145.989,191.667 147.153,188.858 147.153,185.931C147.153,179.874 142.168,174.89 136.112,174.89C131.372,174.89 127.138,177.941 125.638,182.437L124,187.351L122.362,182.437C120.863,177.94 116.627,174.887 111.887,174.887C110.173,174.887 108.482,175.287 106.949,176.053C103.214,177.921 100.846,181.753 100.846,185.929C100.846,188.856 102.01,191.667 104.08,193.737L106.343,196L76,196L76,144C76,141.806 74.194,140 72,140C69.806,140 68,141.806 68,144L68,156L44,156L44,128C44.013,117.033 53.033,108.013 64,108ZM76,204L166.908,204L164.547,220L76,220L76,204ZM109.736,188.08C109.165,187.509 108.844,186.734 108.844,185.926C108.844,184.26 110.21,182.887 111.876,182.88C112.279,182.881 112.678,182.961 113.051,183.115C113.868,183.448 114.498,184.124 114.772,184.963L118.45,196L117.657,196L109.736,188.08ZM138.264,188.08L130.343,196L129.55,196L133.228,184.967C133.502,184.128 134.132,183.452 134.949,183.119C135.322,182.965 135.721,182.885 136.124,182.884C137.79,182.89 139.158,184.263 139.158,185.929C139.158,186.737 138.836,187.513 138.264,188.084L138.264,188.08ZM44,217.09L44,164L68,164L68,224C68,224.106 68.023,224.206 68.031,224.31C68.039,224.414 68.031,224.51 68.047,224.61L72,250.319L71.091,250.138C55.416,246.968 44.033,233.082 44,217.09ZM76,308L76,276.3L80.876,308L76,308ZM136.97,308L130.816,268L134,268L150.667,308L136.97,308ZM202.284,330.554L180.582,468L152,468C149.806,468 148,469.806 148,472C148,474.194 149.806,476 152,476L182.789,476L194.789,484L137.694,484L163.949,320.635C164.068,319.901 163.978,319.148 163.692,318.461L160.368,310.482L160.338,310.41L140.359,262.461C139.739,260.974 138.278,260 136.667,260L126.154,260C123.96,260 122.155,261.806 122.155,264C122.155,264.204 122.17,264.407 122.201,264.608L130.576,319.051C131.439,324.704 130.949,330.482 129.147,335.909L85.117,468L56,468C53.806,468 52,469.806 52,472C52,474.194 53.806,476 56,476L86.789,476L98.789,484L39.571,484L91.79,329.279C91.995,328.672 92.051,328.025 91.953,327.392L76.662,228L165.333,228L199.955,311.093C202.517,317.239 203.324,323.977 202.284,330.554ZM217.788,308L207.333,308L172.119,223.486L180,170.073L180,215.51C179.992,221.677 181.311,227.773 183.868,233.385L217.788,308ZM278.75,116L268,116C265.806,116 264,117.806 264,120L264,205.27C264,205.272 264,205.275 264,205.277C264,222.133 250.13,236.002 233.275,236.002C219.979,236.002 208.123,227.372 204.037,214.72L187.399,163.22L216.899,155.333L232.21,201.261C232.757,202.883 234.288,203.982 236,203.982C238.188,203.982 239.99,202.188 240,200L240,101.66C240,101.659 240,101.658 240,101.657C240,96.359 244.359,92 249.657,92C249.658,92 249.659,92 249.66,92L273.25,92C279.145,92.007 283.993,96.855 284,102.75L284,110.75C283.997,113.629 281.629,115.997 278.75,116ZM314.016,136.736C312.642,136.44 311.484,135.513 310.896,134.236L309.028,130.172L310.941,127.789L315.313,128.734C316.687,129.03 317.844,129.957 318.432,131.234L321.726,138.402L314.016,136.736ZM320.476,160L377.6,119.206L444,166.629L444,179.656L400.726,148.745C399.338,147.754 397.463,147.754 396.075,148.745L350.4,181.372L320.476,160ZM321.282,212L398.4,156.916L444,189.487L444,212L321.282,212ZM320,316L340,316L340,356L282.573,356L296.327,300L316,300L316,312C316,314.194 317.806,316 320,316ZM348,316L356,316L356,356L348,356L348,316ZM364,316L384,316C386.194,316 388,314.194 388,312L388,300L407.673,300L421.427,356L364,356L364,316ZM380,300L380,308L324,308L324,300L380,300ZM244.863,476L237.1,476L280.325,300L288.087,300L244.863,476ZM356,452L348,452L348,380L356,380L356,452ZM278.644,372L280.609,364L423.391,364L425.356,372L278.644,372ZM459.137,476L415.911,300L423.673,300L466.9,476L459.137,476Z" style="fill-rule:nonzero;"/>
            <path d="M424,108C430.583,108 436,102.583 436,96C436,89.417 430.583,84 424,84L411.314,84C409.623,79.217 405.073,75.999 400,75.999C393.417,75.999 388,81.416 388,87.999C388,87.999 388,94 388,94C388.008,101.677 394.323,107.992 402,108L424,108ZM396,94L396,88C396,85.806 397.806,84 400,84C402.194,84 404,85.806 404,88C404,90.194 405.806,92 408,92L424,92C426.194,92 428,93.806 428,96C428,98.194 426.194,100 424,100L402,100C398.71,99.997 396.003,97.29 396,94Z" style="fill-rule:nonzero;"/>
        </g>
    </g>
</svg>
