<?xml version="1.0" encoding="UTF-8" standalone="no"?>
<!DOCTYPE svg PUBLIC "-//W3C//DTD SVG 1.1//EN" "http://www.w3.org/Graphics/SVG/1.1/DTD/svg11.dtd">
<svg width="100%" height="100%" viewBox="0 0 480 475" version="1.1" xmlns="http://www.w3.org/2000/svg" xmlns:xlink="http://www.w3.org/1999/xlink" xml:space="preserve" xmlns:serif="http://www.serif.com/" style="fill-rule:evenodd;clip-rule:evenodd;stroke-linejoin:round;stroke-miterlimit:2;">
    <g transform="matrix(1,0,0,1,-20.0028,-14.1664)">
        <g>
            <path d="M325.016,419.7L313.324,419.7C311.612,419.7 310.081,420.799 309.534,422.421L289.1,482.93C288.961,483.342 288.89,483.775 288.89,484.21C288.89,485.922 289.989,487.453 291.611,488C293.69,488.702 295.978,487.569 296.68,485.49L316.2,427.7L321.07,427.7L321.77,484.054C321.797,486.248 323.625,488.031 325.819,488.004C328.013,487.977 329.796,486.149 329.769,483.955L329.023,423.65C328.996,421.472 327.194,419.696 325.016,419.7Z" style="fill-rule:nonzero;"/>
            <path d="M492.787,50.227L492.423,49.621C484.387,36.223 469.865,28 454.242,28L373.358,28C371.266,27.965 369.463,29.531 369.205,31.607C369.192,31.738 369.186,31.869 369.186,32C369.186,34.194 370.991,36 373.186,36C373.186,36 377.186,36 377.186,36L377.186,44L244.663,44C230.547,43.894 217.243,50.723 209.1,62.253C201.216,73.494 199.355,87.927 204.13,100.8L214.792,130.121C215.73,132.698 216.21,135.42 216.21,138.163C216.21,151.065 205.592,161.683 192.69,161.683C189.697,161.683 186.732,161.112 183.953,160L182.953,159.6C178.347,157.768 174.441,154.517 171.802,150.321L98.306,33.95C90.543,21.648 76.974,14.166 62.428,14.166C39.154,14.166 20.003,33.318 20.003,56.591C20.003,64.972 22.486,73.167 27.137,80.138C27.168,80.185 27.201,80.231 27.237,80.277L57.186,121.3L57.186,143.868C57.187,150.2 60.005,156.214 64.869,160.268L73.186,167.199L73.186,176.999C73.186,182.623 75.732,187.956 80.106,191.492L90.506,199.899C91.767,200.919 93.529,201.074 94.95,200.292C96.261,199.518 97.055,198.092 97.021,196.57L97.021,187.056L102.756,191.835C103.828,192.696 104.605,193.87 104.976,195.194C105.446,196.966 105.133,198.857 104.117,200.383L75.437,243.413L63.874,240.406C52.921,237.58 41.254,240.767 33.258,248.768C32.512,249.517 32.092,250.533 32.092,251.591C32.092,252.654 32.516,253.675 33.27,254.425L36.877,258.016C42.554,263.68 50.168,266.992 58.182,267.284L66.209,267.584L66.174,273.652C66.125,282.256 69.534,290.529 75.631,296.6L78.622,299.578C79.371,300.324 80.387,300.744 81.445,300.744L81.453,300.744C82.528,300.738 83.557,300.302 84.31,299.534C92.247,291.499 95.41,279.861 92.631,268.914L89.679,257.414L126.8,225.6C144.353,210.573 150.042,185.656 140.751,164.5L154.3,164.5C155.544,164.524 156.736,163.986 157.539,163.035C158.794,161.495 158.724,159.242 157.376,157.783L138.076,136.936C135.077,133.669 130.853,131.788 126.418,131.745C123.214,131.681 120.064,132.59 117.387,134.352C104.309,122.529 87.288,115.984 69.658,116L63.218,116L33.748,75.632C29.999,69.988 27.998,63.36 27.998,56.584C27.998,37.699 43.538,22.159 62.423,22.159C74.231,22.159 85.244,28.234 91.542,38.222L165.042,154.593C168.578,160.217 173.813,164.572 179.986,167.027L180.986,167.427C184.709,168.916 188.683,169.682 192.693,169.682C208.386,169.682 221.809,157.963 223.926,142.414C224.595,137.151 223.972,131.803 222.113,126.834L211.861,98.652C207.937,88.131 209.307,76.34 215.54,67C221.88,57.568 232.552,51.927 243.916,52L454.042,52C461.791,52.001 468.904,56.394 472.375,63.322L472.692,63.957C474.114,66.8 474.854,69.936 474.854,73.115C474.854,81.5 469.703,89.075 461.905,92.157L299.715,156.28C299.691,156.29 299.67,156.306 299.646,156.316C296.552,148.867 289.242,143.987 281.176,143.987C270.204,143.987 261.176,153.015 261.176,163.987C261.176,171.337 265.227,178.118 271.7,181.6L263.169,185.38L262.101,181.991C261.202,179.108 258.515,177.131 255.495,177.131C254.574,177.131 253.663,177.314 252.814,177.671L221.078,190.982C220.105,191.391 219.239,192.016 218.543,192.809C217.503,192.781 216.47,192.988 215.521,193.415L182.131,208.534C178.964,209.987 177.357,213.612 178.409,216.934L180.085,222.212L158.6,231.732C157.158,232.373 156.224,233.809 156.224,235.387C156.224,235.972 156.353,236.55 156.6,237.08L164,252.971C164.656,254.377 166.073,255.28 167.625,255.28C168.235,255.28 168.838,255.14 169.386,254.871L187.62,245.936L213.975,328.892C220.155,348.359 239.958,360.412 260.088,356.957C262.18,356.635 263.702,354.751 263.577,352.638C263.399,350.581 261.656,348.983 259.592,348.983C259.359,348.983 259.126,349.003 258.896,349.044C242.638,351.913 226.594,342.203 221.596,326.468L199.609,257.261L222.16,248.241C224.114,247.497 225.207,245.375 224.677,243.352C224.183,241.647 222.61,240.466 220.835,240.466C220.326,240.466 219.822,240.563 219.349,240.752L197.181,249.619L194.881,242.379L226.014,227.123L258.274,327.89C261.006,336.511 266.434,344.032 273.754,349.342C274.25,349.704 274.753,350.054 275.262,350.393L269.138,369.883L233.022,482.973C232.355,485.063 233.526,487.333 235.616,488C237.706,488.667 239.975,487.497 240.643,485.407L275.886,375.083L368.167,375.083L368.567,484.015C368.575,486.208 370.385,488.006 372.578,488C374.767,487.992 376.563,486.189 376.563,484C376.563,483.995 376.563,483.99 376.563,483.985L376.156,371.948L416.12,285.591C418.557,280.388 419.748,274.688 419.599,268.944C419.542,266.789 417.754,265.048 415.599,265.048C413.404,265.048 411.598,266.854 411.598,269.049C411.598,269.085 411.598,269.12 411.599,269.155C411.713,273.667 410.774,278.144 408.857,282.23L369.59,367.083L278.409,367.083L282.441,354.25C287.656,356.437 293.255,357.559 298.91,357.55C308.011,357.531 316.874,354.616 324.21,349.229L398.285,294.643C399.84,293.53 400.41,291.462 399.644,289.709C398.997,288.281 397.568,287.359 396,287.359C395.145,287.359 394.312,287.633 393.624,288.141L377.831,299.778L359.031,274.714L369.387,267.314C370.96,266.224 371.56,264.163 370.819,262.399C370.183,260.942 368.737,259.996 367.148,259.996C366.313,259.996 365.498,260.258 364.819,260.743L301.23,306.17L272.93,216.36L275.163,214.226C278.672,210.882 280.107,205.888 278.91,201.192L305.9,187.972C307.845,187.019 308.68,184.651 307.765,182.689L305.817,178.512L470.892,115.368C482.343,110.998 491.492,102.082 496.155,90.747C501.491,77.477 500.24,62.434 492.787,50.227ZM89.019,188.423L85.135,185.283C82.633,183.269 81.179,180.223 81.186,177.011L81.186,173.874L89.019,180.401L89.019,188.423ZM81.192,290.853C76.678,286.29 74.153,280.118 74.174,273.7L74.231,263.754C74.244,261.607 72.526,259.813 70.381,259.733L58.481,259.288C52.478,259.07 46.774,256.588 42.522,252.345L41.991,251.815C47.748,247.73 55.024,246.386 61.861,248.146L75.127,251.596L81.583,258.053L84.883,270.904C86.625,277.77 85.275,285.065 81.192,290.853ZM126.306,139.744C128.55,139.765 130.688,140.716 132.206,142.369L145.286,156.5L136.81,156.5L123.285,140.271C124.248,139.899 125.274,139.72 126.306,139.744ZM65.186,124L69.658,124C88.443,123.976 106.292,132.335 118.3,146.781L125.217,155.081L126.838,157.026C142.372,175.668 140.016,203.734 121.592,219.526L85.4,250.552L82.338,247.49L110.776,204.832C114.831,198.751 113.634,190.495 108.019,185.816L86,167.472L86.434,167.372C90.358,166.509 94.004,164.673 97.034,162.034L109.657,170.449C116.861,175.242 121.197,183.347 121.186,192C121.186,194.194 122.992,196 125.186,196C127.38,196 129.186,194.194 129.186,192C129.197,180.676 123.521,170.072 114.092,163.8L102.109,155.812C104.136,152.206 105.196,148.137 105.186,144C105.186,141.806 103.38,140 101.186,140C98.992,140 97.186,141.806 97.186,144C97.198,147.628 95.97,151.154 93.705,153.988C93.622,154.068 93.552,154.164 93.475,154.252C91.218,156.944 88.131,158.813 84.699,159.566L78.237,161L69.991,154.128C66.946,151.595 65.184,147.831 65.191,143.87L65.186,124ZM385.186,36L441.186,36L441.186,44L385.186,44L385.186,36ZM454.058,44L449.186,44L449.186,36L454.237,36C467.045,36.036 478.942,42.772 485.563,53.736L486.308,54.979C492.493,65.234 493.224,77.911 488.259,88.809L481.03,83.115C483.811,75.704 483.382,67.46 479.847,60.377L479.529,59.742C474.741,50.084 464.838,43.963 454.058,44ZM340.1,156.832L337.922,149.778L379.664,133.278L382.144,140.753L340.1,156.832ZM387.115,130.332L429.615,113.532L432.721,121.408L389.621,137.895L387.115,130.332ZM302.657,163.72L330.457,152.728L332.608,159.697L302.308,171.289C301.788,170.645 301.08,170.178 300.282,169.956C300.884,168.028 301.189,166.02 301.188,164L301.188,163.992C301.69,163.994 302.189,163.902 302.657,163.72ZM281.186,152C287.769,152 293.186,157.417 293.186,164C293.186,170.583 287.769,176 281.186,176C274.603,176 269.186,170.583 269.186,164C269.193,157.42 274.606,152.007 281.186,152ZM217.355,200.057L217.355,200.047L217.355,200.057ZM186.322,215.419L217.722,201.2L218.935,204.989L187.443,218.948L186.322,215.419ZM169.532,245.894L165.568,237.394L221.388,212.652L223.554,219.419L169.532,245.894ZM295.265,313.832C295.788,315.493 297.339,316.63 299.08,316.63C299.914,316.63 300.727,316.369 301.405,315.885L352.524,279.366L371.393,304.525L319.464,342.791C313.504,347.167 306.304,349.535 298.91,349.55C283.879,349.541 270.486,339.764 265.899,325.45L239.023,241.5L260.398,232.95C261.914,232.344 262.913,230.868 262.913,229.236C262.913,227.042 261.107,225.236 258.912,225.236C258.404,225.236 257.899,225.333 257.427,225.522L236.578,233.862L225.089,197.977L254.819,185.506L260.935,204.895C261.459,206.555 263.009,207.691 264.75,207.691C265.361,207.691 265.964,207.551 266.512,207.282L271.312,204.927C271.208,206.267 270.61,207.523 269.636,208.449L265.606,212.3C264.506,213.351 264.097,214.943 264.554,216.394L295.265,313.832ZM267.165,198.043L265.592,193.058L297.236,179.036L298.858,182.515L267.165,198.043ZM468.034,107.9L440.2,118.544L437.061,110.584L464.847,99.6C469.722,97.662 473.971,94.418 477.125,90.226L484.157,95.764C480.033,101.246 474.443,105.454 468.034,107.9Z" style="fill-rule:nonzero;"/>
            <circle cx="81.186" cy="136" r="4"/>
            <path d="M361.26,246.023L360.17,246.943C359.27,247.703 358.751,248.822 358.751,249.999C358.751,251.749 359.898,253.305 361.57,253.821L406.82,267.821C407.202,267.939 407.6,267.999 408,267.999C410.195,267.999 412,266.193 412,263.999C412,263.985 412,263.972 412,263.958L411.75,240.273C411.694,234.449 410.98,228.65 409.62,222.987L405.137,204.287L409.309,192.367C411.276,186.779 410.618,180.591 407.52,175.542L406.782,174.335C402.069,166.694 393.403,162.361 384.462,163.175C378.912,163.721 373.841,166.578 370.498,171.042L360.207,166.954C354.525,164.665 347.956,166.932 344.896,172.238L341.545,177.983C341.188,178.595 341,179.291 341,179.999C341,181.596 341.956,183.047 343.424,183.676L361.824,191.562L354.1,211.856C351.794,217.905 354.77,224.786 360.756,227.249L358.662,232.743C330.975,234.249 306.836,252.479 297.812,278.698C297.65,279.139 297.568,279.605 297.568,280.074C297.568,282.268 299.374,284.074 301.568,284.074C303.301,284.074 304.846,282.948 305.376,281.298C313.734,257.025 336.718,240.63 362.39,240.63L366.742,240.63C365.048,242.558 363.215,244.36 361.26,246.023ZM370.606,248.244C381.767,236.852 388.017,221.518 388,205.57L388,202.781L397.528,206.864L401.841,224.854C403.061,229.932 403.701,235.132 403.75,240.354L403.942,258.56L370.606,248.244ZM351.806,176.271C352.895,174.383 355.232,173.577 357.254,174.391L370.667,179.718C372.607,180.488 374.841,179.617 375.747,177.736C377.541,174.044 381.135,171.542 385.22,171.141C391.123,170.598 396.848,173.46 399.956,178.508L400.694,179.715C402.537,182.719 402.929,186.401 401.758,189.726L398.639,198.637L350.739,178.106L351.806,176.271ZM361.578,214.703L369.186,194.718L380,199.352L380,205.57C379.997,210.694 379.252,215.791 377.788,220.701C373.196,221.867 368.354,221.592 363.923,219.912C362.357,219.318 361.316,217.81 361.316,216.135C361.316,215.646 361.404,215.161 361.578,214.703ZM367.268,232.63L368.568,229.209C369.743,229.347 370.924,229.417 372.107,229.42C372.864,229.42 373.619,229.38 374.372,229.325C373.811,230.446 373.22,231.551 372.579,232.63L367.268,232.63Z" style="fill-rule:nonzero;"/>
            <path d="M136,244C131.169,244 118.906,253.191 109.469,260.9C108.538,261.659 107.997,262.799 107.997,264C107.997,266.194 109.803,268 111.997,268C111.998,268 111.999,268 112,268L136,268C142.583,268 148,262.583 148,256C148,249.417 142.583,244 136,244ZM136,260L123.656,260C129.286,255.83 134.38,252.456 136.164,252C138.327,252.044 140.083,253.836 140.083,256C140.083,258.195 138.277,260.001 136.082,260.001C136.055,260.001 136.027,260.001 136,260Z" style="fill-rule:nonzero;"/>
            <path d="M112.924,276.108C112.622,276.036 112.313,276 112.002,276C109.808,276 108.002,277.806 108.002,280C108.002,280.878 108.291,281.732 108.824,282.429L123.4,301.5C125.325,304.035 128.188,305.695 131.344,306.108C131.879,306.18 132.419,306.216 132.959,306.216C135.585,306.217 138.139,305.349 140.22,303.748C145.443,299.745 146.456,292.159 142.467,286.926C139.53,283.086 124.781,278.924 112.924,276.108ZM135.358,297.39C134.661,297.923 133.807,298.211 132.93,298.211C131.684,298.211 130.507,297.629 129.751,296.639L122.251,286.831C128.982,288.771 134.751,290.771 136.2,291.914C137.423,293.66 137.049,296.092 135.358,297.39Z" style="fill-rule:nonzero;"/>
        </g>
    </g>
</svg>
