<svg width="100%" height="100%" viewBox="0 0 16 16" version="1.1" xmlns="http://www.w3.org/2000/svg" xmlns:xlink="http://www.w3.org/1999/xlink" xml:space="preserve" xmlns:serif="http://www.serif.com/" style="fill-rule:evenodd;clip-rule:evenodd;stroke-linejoin:round;stroke-miterlimit:2;">
    <g fill="currentColor">
        <path d="M13.933,6.158L13.939,6.161L10.757,9.343L15,13.586L15,15L13.586,15L9.344,10.757L6.162,13.939L13.933,6.158Z"/>
        <path fill="rgb(100,187,200)" d="M6.162,13.939L4.909,11.433C4.813,11.241 4.851,11.008 5.003,10.856L5.667,10.192L4.182,7.434L3.333,8.283L1.565,6.515C1.371,6.321 1.371,6.002 1.565,5.808L5.808,1.565C6.002,1.371 6.321,1.371 6.515,1.565L8.283,3.332L7.434,4.181L10.192,5.666L10.856,5.002C11.008,4.85 11.241,4.812 11.433,4.908L13.933,6.158L6.162,13.939ZM3.333,6.868L6.868,3.332L6.161,2.625L2.626,6.161L3.333,6.868ZM4.919,6.696L6.404,9.453L9.453,6.405L6.695,4.92L4.919,6.696ZM5.964,11.308L6.436,12.25L12.252,6.434L11.309,5.963L5.964,11.308Z"/>
    </g>
</svg>
