<?xml version="1.0" encoding="utf-8"?><svg xmlns="http://www.w3.org/2000/svg" xmlns:xlink="http://www.w3.org/1999/xlink"><symbol viewBox="0 0 16 16" id="certificate-black" xmlns="http://www.w3.org/2000/svg"><g fill="currentColor"><path d="M13.25 6c0-.474-.186-.93-.515-1.269a1.826 1.826 0 0 0-1.269-2.198 1.833 1.833 0 0 0-2.198-1.269 1.824 1.824 0 0 0-2.537 0 1.834 1.834 0 0 0-2.197 1.269 1.822 1.822 0 0 0-1.269 2.198 1.825 1.825 0 0 0 0 2.538 1.822 1.822 0 0 0 1.268 2.198 1.8 1.8 0 0 0 .467.757V15l3.111-1L11 15v-4.776c.208-.213.383-.46.467-.757a1.824 1.824 0 0 0 1.269-2.198c.328-.339.514-.795.514-1.269zm-4.812 7.055-.315-.109-.318.102-1.805.58v-2.885c.095.016.186.048.285.048.15 0 .3-.019.446-.055.339.328.795.514 1.269.514s.93-.186 1.269-.514c.146.037.295.055.446.055.099 0 .19-.032.285-.048v2.853l-1.562-.541zm3.599-6.364a.824.824 0 0 0-.23.857A.821.821 0 0 1 11.2 8.6a.821.821 0 0 0-.627.627.822.822 0 0 1-1.053.608.822.822 0 0 0-.857.23.822.822 0 0 1-1.215 0 .824.824 0 0 0-.857-.23.821.821 0 0 1-1.052-.607.824.824 0 0 0-.628-.628.821.821 0 0 1-.607-1.052.822.822 0 0 0-.23-.857.822.822 0 0 1 0-1.215.824.824 0 0 0 .23-.857.822.822 0 0 1 .607-1.053.821.821 0 0 0 .628-.627.822.822 0 0 1 1.052-.608.822.822 0 0 0 .857-.23.822.822 0 0 1 1.215 0 .824.824 0 0 0 .857.23.822.822 0 0 1 1.052.608.821.821 0 0 0 .627.627.822.822 0 0 1 .608 1.052.822.822 0 0 0 .23.857.823.823 0 0 1 0 1.216z"/><circle cx="8" cy="6" r="2"/></g></symbol><symbol viewBox="0 0 16 16" id="certificate-blue" xmlns="http://www.w3.org/2000/svg"><g fill="currentColor"><path fill="#64BBC8" d="M13.25 6c0-.474-.186-.93-.515-1.269a1.826 1.826 0 0 0-1.269-2.198 1.833 1.833 0 0 0-2.198-1.269 1.824 1.824 0 0 0-2.537 0 1.834 1.834 0 0 0-2.197 1.269 1.822 1.822 0 0 0-1.269 2.198 1.825 1.825 0 0 0 0 2.538 1.822 1.822 0 0 0 1.268 2.198 1.8 1.8 0 0 0 .467.757V15l3.111-1L11 15v-4.776c.208-.213.383-.46.467-.757a1.824 1.824 0 0 0 1.269-2.198c.328-.339.514-.795.514-1.269zm-4.812 7.055-.315-.109-.318.102-1.805.58v-2.885c.095.016.186.048.285.048.15 0 .3-.019.446-.055.339.328.795.514 1.269.514s.93-.186 1.269-.514c.146.037.295.055.446.055.099 0 .19-.032.285-.048v2.853l-1.562-.541zm3.599-6.364a.824.824 0 0 0-.23.857A.821.821 0 0 1 11.2 8.6a.821.821 0 0 0-.627.627.822.822 0 0 1-1.053.608.822.822 0 0 0-.857.23.822.822 0 0 1-1.215 0 .824.824 0 0 0-.857-.23.821.821 0 0 1-1.052-.607.824.824 0 0 0-.628-.628.821.821 0 0 1-.607-1.052.822.822 0 0 0-.23-.857.822.822 0 0 1 0-1.215.824.824 0 0 0 .23-.857.822.822 0 0 1 .607-1.053.821.821 0 0 0 .628-.627.822.822 0 0 1 1.052-.608.822.822 0 0 0 .857-.23.822.822 0 0 1 1.215 0 .824.824 0 0 0 .857.23.822.822 0 0 1 1.052.608.821.821 0 0 0 .627.627.822.822 0 0 1 .608 1.052.822.822 0 0 0 .23.857.823.823 0 0 1 0 1.216z"/><circle cx="8" cy="6" r="2"/></g></symbol><symbol viewBox="0 0 16 16" id="certificate-green" xmlns="http://www.w3.org/2000/svg"><g fill="currentColor"><path fill="#6A9E71" d="M13.25 6c0-.474-.186-.93-.515-1.269a1.826 1.826 0 0 0-1.269-2.198 1.833 1.833 0 0 0-2.198-1.269 1.824 1.824 0 0 0-2.537 0 1.834 1.834 0 0 0-2.197 1.269 1.822 1.822 0 0 0-1.269 2.198 1.825 1.825 0 0 0 0 2.538 1.822 1.822 0 0 0 1.268 2.198 1.8 1.8 0 0 0 .467.757V15l3.111-1L11 15v-4.776c.208-.213.383-.46.467-.757a1.824 1.824 0 0 0 1.269-2.198c.328-.339.514-.795.514-1.269zm-4.812 7.055-.315-.109-.318.102-1.805.58v-2.885c.095.016.186.048.285.048.15 0 .3-.019.446-.055.339.328.795.514 1.269.514s.93-.186 1.269-.514c.146.037.295.055.446.055.099 0 .19-.032.285-.048v2.853l-1.562-.541zm3.599-6.364a.824.824 0 0 0-.23.857A.821.821 0 0 1 11.2 8.6a.821.821 0 0 0-.627.627.822.822 0 0 1-1.053.608.822.822 0 0 0-.857.23.822.822 0 0 1-1.215 0 .824.824 0 0 0-.857-.23.821.821 0 0 1-1.052-.607.824.824 0 0 0-.628-.628.821.821 0 0 1-.607-1.052.822.822 0 0 0-.23-.857.822.822 0 0 1 0-1.215.824.824 0 0 0 .23-.857.822.822 0 0 1 .607-1.053.821.821 0 0 0 .628-.627.822.822 0 0 1 1.052-.608.822.822 0 0 0 .857-.23.822.822 0 0 1 1.215 0 .824.824 0 0 0 .857.23.822.822 0 0 1 1.052.608.821.821 0 0 0 .627.627.822.822 0 0 1 .608 1.052.822.822 0 0 0 .23.857.823.823 0 0 1 0 1.216z"/><circle cx="8" cy="6" r="2"/></g></symbol><symbol viewBox="0 0 16 16" id="certificate-orange" xmlns="http://www.w3.org/2000/svg"><g fill="currentColor"><path fill="#FF7043" d="M13.25 6c0-.474-.186-.93-.515-1.269a1.826 1.826 0 0 0-1.269-2.198 1.833 1.833 0 0 0-2.198-1.269 1.824 1.824 0 0 0-2.537 0 1.834 1.834 0 0 0-2.197 1.269 1.822 1.822 0 0 0-1.269 2.198 1.825 1.825 0 0 0 0 2.538 1.822 1.822 0 0 0 1.268 2.198 1.8 1.8 0 0 0 .467.757V15l3.111-1L11 15v-4.776c.208-.213.383-.46.467-.757a1.824 1.824 0 0 0 1.269-2.198c.328-.339.514-.795.514-1.269zm-4.812 7.055-.315-.109-.318.102-1.805.58v-2.885c.095.016.186.048.285.048.15 0 .3-.019.446-.055.339.328.795.514 1.269.514s.93-.186 1.269-.514c.146.037.295.055.446.055.099 0 .19-.032.285-.048v2.853l-1.562-.541zm3.599-6.364a.824.824 0 0 0-.23.857A.821.821 0 0 1 11.2 8.6a.821.821 0 0 0-.627.627.822.822 0 0 1-1.053.608.822.822 0 0 0-.857.23.822.822 0 0 1-1.215 0 .824.824 0 0 0-.857-.23.821.821 0 0 1-1.052-.607.824.824 0 0 0-.628-.628.821.821 0 0 1-.607-1.052.822.822 0 0 0-.23-.857.822.822 0 0 1 0-1.215.824.824 0 0 0 .23-.857.822.822 0 0 1 .607-1.053.821.821 0 0 0 .628-.627.822.822 0 0 1 1.052-.608.822.822 0 0 0 .857-.23.822.822 0 0 1 1.215 0 .824.824 0 0 0 .857.23.822.822 0 0 1 1.052.608.821.821 0 0 0 .627.627.822.822 0 0 1 .608 1.052.822.822 0 0 0 .23.857.823.823 0 0 1 0 1.216z"/><circle cx="8" cy="6" r="2"/></g></symbol><symbol viewBox="0 0 16 16" id="certificate-purple" xmlns="http://www.w3.org/2000/svg"><g fill="currentColor"><path fill="#5C6BC0" d="M13.25 6c0-.474-.186-.93-.515-1.269a1.826 1.826 0 0 0-1.269-2.198 1.833 1.833 0 0 0-2.198-1.269 1.824 1.824 0 0 0-2.537 0 1.834 1.834 0 0 0-2.197 1.269 1.822 1.822 0 0 0-1.269 2.198 1.825 1.825 0 0 0 0 2.538 1.822 1.822 0 0 0 1.268 2.198 1.8 1.8 0 0 0 .467.757V15l3.111-1L11 15v-4.776c.208-.213.383-.46.467-.757a1.824 1.824 0 0 0 1.269-2.198c.328-.339.514-.795.514-1.269zm-4.812 7.055-.315-.109-.318.102-1.805.58v-2.885c.095.016.186.048.285.048.15 0 .3-.019.446-.055.339.328.795.514 1.269.514s.93-.186 1.269-.514c.146.037.295.055.446.055.099 0 .19-.032.285-.048v2.853l-1.562-.541zm3.599-6.364a.824.824 0 0 0-.23.857A.821.821 0 0 1 11.2 8.6a.821.821 0 0 0-.627.627.822.822 0 0 1-1.053.608.822.822 0 0 0-.857.23.822.822 0 0 1-1.215 0 .824.824 0 0 0-.857-.23.821.821 0 0 1-1.052-.607.824.824 0 0 0-.628-.628.821.821 0 0 1-.607-1.052.822.822 0 0 0-.23-.857.822.822 0 0 1 0-1.215.824.824 0 0 0 .23-.857.822.822 0 0 1 .607-1.053.821.821 0 0 0 .628-.627.822.822 0 0 1 1.052-.608.822.822 0 0 0 .857-.23.822.822 0 0 1 1.215 0 .824.824 0 0 0 .857.23.822.822 0 0 1 1.052.608.821.821 0 0 0 .627.627.822.822 0 0 1 .608 1.052.822.822 0 0 0 .23.857.823.823 0 0 1 0 1.216z"/><circle cx="8" cy="6" r="2"/></g></symbol><symbol viewBox="0 0 16 16" id="certificate-red" xmlns="http://www.w3.org/2000/svg"><g fill="#FA8893"><path d="M13.25 6c0-.474-.186-.93-.515-1.269a1.826 1.826 0 0 0-1.269-2.198 1.833 1.833 0 0 0-2.198-1.269 1.824 1.824 0 0 0-2.537 0 1.834 1.834 0 0 0-2.197 1.269 1.822 1.822 0 0 0-1.269 2.198 1.825 1.825 0 0 0 0 2.538 1.822 1.822 0 0 0 1.268 2.198 1.8 1.8 0 0 0 .467.757V15l3.111-1L11 15v-4.776c.208-.213.383-.46.467-.757a1.824 1.824 0 0 0 1.269-2.198c.328-.339.514-.795.514-1.269zm-4.812 7.055-.315-.109-.318.102-1.805.58v-2.885c.095.016.186.048.285.048.15 0 .3-.019.446-.055.339.328.795.514 1.269.514s.93-.186 1.269-.514c.146.037.295.055.446.055.099 0 .19-.032.285-.048v2.853l-1.562-.541zm3.599-6.364a.824.824 0 0 0-.23.857A.821.821 0 0 1 11.2 8.6a.821.821 0 0 0-.627.627.822.822 0 0 1-1.053.608.822.822 0 0 0-.857.23.822.822 0 0 1-1.215 0 .824.824 0 0 0-.857-.23.821.821 0 0 1-1.052-.607.824.824 0 0 0-.628-.628.821.821 0 0 1-.607-1.052.822.822 0 0 0-.23-.857.822.822 0 0 1 0-1.215.824.824 0 0 0 .23-.857.822.822 0 0 1 .607-1.053.821.821 0 0 0 .628-.627.822.822 0 0 1 1.052-.608.822.822 0 0 0 .857-.23.822.822 0 0 1 1.215 0 .824.824 0 0 0 .857.23.822.822 0 0 1 1.052.608.821.821 0 0 0 .627.627.822.822 0 0 1 .608 1.052.822.822 0 0 0 .23.857.823.823 0 0 1 0 1.216z"/><circle cx="8" cy="6" r="2" fill="currentColor"/></g></symbol><symbol viewBox="0 0 16 16" id="certificate-yellow" xmlns="http://www.w3.org/2000/svg"><g fill="currentColor"><path fill="#FFCD75" d="M13.25 6c0-.474-.186-.93-.515-1.269a1.826 1.826 0 0 0-1.269-2.198 1.833 1.833 0 0 0-2.198-1.269 1.824 1.824 0 0 0-2.537 0 1.834 1.834 0 0 0-2.197 1.269 1.822 1.822 0 0 0-1.269 2.198 1.825 1.825 0 0 0 0 2.538 1.822 1.822 0 0 0 1.268 2.198 1.8 1.8 0 0 0 .467.757V15l3.111-1L11 15v-4.776c.208-.213.383-.46.467-.757a1.824 1.824 0 0 0 1.269-2.198c.328-.339.514-.795.514-1.269zm-4.812 7.055-.315-.109-.318.102-1.805.58v-2.885c.095.016.186.048.285.048.15 0 .3-.019.446-.055.339.328.795.514 1.269.514s.93-.186 1.269-.514c.146.037.295.055.446.055.099 0 .19-.032.285-.048v2.853l-1.562-.541zm3.599-6.364a.824.824 0 0 0-.23.857A.821.821 0 0 1 11.2 8.6a.821.821 0 0 0-.627.627.822.822 0 0 1-1.053.608.822.822 0 0 0-.857.23.822.822 0 0 1-1.215 0 .824.824 0 0 0-.857-.23.821.821 0 0 1-1.052-.607.824.824 0 0 0-.628-.628.821.821 0 0 1-.607-1.052.822.822 0 0 0-.23-.857.822.822 0 0 1 0-1.215.824.824 0 0 0 .23-.857.822.822 0 0 1 .607-1.053.821.821 0 0 0 .628-.627.822.822 0 0 1 1.052-.608.822.822 0 0 0 .857-.23.822.822 0 0 1 1.215 0 .824.824 0 0 0 .857.23.822.822 0 0 1 1.052.608.821.821 0 0 0 .627.627.822.822 0 0 1 .608 1.052.822.822 0 0 0 .23.857.823.823 0 0 1 0 1.216z"/><circle cx="8" cy="6" r="2"/></g></symbol></svg>