<?xml version="1.0" encoding="utf-8"?><svg xmlns="http://www.w3.org/2000/svg" xmlns:xlink="http://www.w3.org/1999/xlink"><symbol viewBox="0 0 448 512" xml:space="preserve" style="fill-rule:evenodd;clip-rule:evenodd;stroke-linejoin:round;stroke-miterlimit:2" id="flag-black" xmlns="http://www.w3.org/2000/svg"><g fill="currentColor"><path d="M108.123 367.044v51.184c0 12.819-10.356 23.175-23.175 23.175-12.82 0-23.176-10.356-23.176-23.175V93.772c0-12.819 10.357-23.175 23.176-23.175 12.036 0 21.902 9.131 23.061 20.858v275.59h.114Z"/><path d="M108.123 367.044h-.114V91.454c.076.763.114 1.536.114 2.318v11.588l49.972-12.53c27.593-6.88 56.78-3.693 82.2 9.054a118.881 118.881 0 0 0 106.535 0l6.952-3.477c14.92-7.46 32.446 3.404 32.446 20.062v179.32a23.192 23.192 0 0 1-15.064 21.726l-25.131 9.415c-33.46 12.602-70.613 10.646-102.624-5.36-27.448-13.687-58.952-17.163-88.718-9.704l-46.568 11.66v41.518Z"/></g></symbol><symbol viewBox="0 0 448 512" xml:space="preserve" style="fill-rule:evenodd;clip-rule:evenodd;stroke-linejoin:round;stroke-miterlimit:2" id="flag-blue" xmlns="http://www.w3.org/2000/svg"><path d="M108.123 367.044v51.184c0 12.819-10.356 23.175-23.175 23.175-12.82 0-23.176-10.356-23.176-23.175V93.772c0-12.819 10.357-23.175 23.176-23.175 12.036 0 21.902 9.131 23.061 20.858v275.59h.114Z" fill="currentColor"/><path d="M64 409.327h-.157V28.8c.104 1.052.157 2.12.157 3.2v16l69-17.3c38.1-9.5 78.4-5.1 113.5 12.5 46.3 23.2 100.8 23.2 147.1 0l9.6-4.8c20.6-10.3 44.8 4.7 44.8 27.7v247.6c0 13.4-8.3 25.3-20.8 30l-34.7 13c-46.2 17.4-97.5 14.7-141.7-7.4-37.9-18.9-81.4-23.7-122.5-13.4L64 352v57.327Z" style="fill:#64bbc8" transform="translate(61.772 70.597) scale(.72423)"/></symbol><symbol viewBox="0 0 448 512" xml:space="preserve" style="fill-rule:evenodd;clip-rule:evenodd;stroke-linejoin:round;stroke-miterlimit:2" id="flag-gray" xmlns="http://www.w3.org/2000/svg"><path d="M108.123 367.044v51.184c0 12.819-10.356 23.175-23.175 23.175-12.82 0-23.176-10.356-23.176-23.175V93.772c0-12.819 10.357-23.175 23.176-23.175 12.036 0 21.902 9.131 23.061 20.858v275.59h.114Z" fill="currentColor"/><path d="M64 409.327h-.157V28.8c.104 1.052.157 2.12.157 3.2v16l69-17.3c38.1-9.5 78.4-5.1 113.5 12.5 46.3 23.2 100.8 23.2 147.1 0l9.6-4.8c20.6-10.3 44.8 4.7 44.8 27.7v247.6c0 13.4-8.3 25.3-20.8 30l-34.7 13c-46.2 17.4-97.5 14.7-141.7-7.4-37.9-18.9-81.4-23.7-122.5-13.4L64 352v57.327Z" style="fill:#bbb" transform="translate(61.772 70.597) scale(.72423)"/></symbol><symbol viewBox="0 0 448 512" xml:space="preserve" style="fill-rule:evenodd;clip-rule:evenodd;stroke-linejoin:round;stroke-miterlimit:2" id="flag-green" xmlns="http://www.w3.org/2000/svg"><path d="M108.123 367.044v51.184c0 12.819-10.356 23.175-23.175 23.175-12.82 0-23.176-10.356-23.176-23.175V93.772c0-12.819 10.357-23.175 23.176-23.175 12.036 0 21.902 9.131 23.061 20.858v275.59h.114Z" fill="currentColor"/><path d="M64 409.327h-.157V28.8c.104 1.052.157 2.12.157 3.2v16l69-17.3c38.1-9.5 78.4-5.1 113.5 12.5 46.3 23.2 100.8 23.2 147.1 0l9.6-4.8c20.6-10.3 44.8 4.7 44.8 27.7v247.6c0 13.4-8.3 25.3-20.8 30l-34.7 13c-46.2 17.4-97.5 14.7-141.7-7.4-37.9-18.9-81.4-23.7-122.5-13.4L64 352v57.327Z" style="fill:#6a9e71" transform="translate(61.772 70.597) scale(.72423)"/></symbol><symbol viewBox="0 0 448 512" xml:space="preserve" style="fill-rule:evenodd;clip-rule:evenodd;stroke-linejoin:round;stroke-miterlimit:2" id="flag-orange" xmlns="http://www.w3.org/2000/svg"><path d="M108.123 367.044v51.184c0 12.819-10.356 23.175-23.175 23.175-12.82 0-23.176-10.356-23.176-23.175V93.772c0-12.819 10.357-23.175 23.176-23.175 12.036 0 21.902 9.131 23.061 20.858v275.59h.114Z" fill="currentColor"/><path d="M64 409.327h-.157V28.8c.104 1.052.157 2.12.157 3.2v16l69-17.3c38.1-9.5 78.4-5.1 113.5 12.5 46.3 23.2 100.8 23.2 147.1 0l9.6-4.8c20.6-10.3 44.8 4.7 44.8 27.7v247.6c0 13.4-8.3 25.3-20.8 30l-34.7 13c-46.2 17.4-97.5 14.7-141.7-7.4-37.9-18.9-81.4-23.7-122.5-13.4L64 352v57.327Z" style="fill:#ff7043" transform="translate(61.772 70.597) scale(.72423)"/></symbol><symbol viewBox="0 0 448 512" xml:space="preserve" style="fill-rule:evenodd;clip-rule:evenodd;stroke-linejoin:round;stroke-miterlimit:2" id="flag-purple" xmlns="http://www.w3.org/2000/svg"><path d="M108.123 367.044v51.184c0 12.819-10.356 23.175-23.175 23.175-12.82 0-23.176-10.356-23.176-23.175V93.772c0-12.819 10.357-23.175 23.176-23.175 12.036 0 21.902 9.131 23.061 20.858v275.59h.114Z" fill="currentColor"/><path d="M64 409.327h-.157V28.8c.104 1.052.157 2.12.157 3.2v16l69-17.3c38.1-9.5 78.4-5.1 113.5 12.5 46.3 23.2 100.8 23.2 147.1 0l9.6-4.8c20.6-10.3 44.8 4.7 44.8 27.7v247.6c0 13.4-8.3 25.3-20.8 30l-34.7 13c-46.2 17.4-97.5 14.7-141.7-7.4-37.9-18.9-81.4-23.7-122.5-13.4L64 352v57.327Z" style="fill:#673ab7" transform="translate(61.772 70.597) scale(.72423)"/></symbol><symbol viewBox="0 0 448 512" xml:space="preserve" style="fill-rule:evenodd;clip-rule:evenodd;stroke-linejoin:round;stroke-miterlimit:2" id="flag-red" xmlns="http://www.w3.org/2000/svg"><path d="M108.123 367.044v51.184c0 12.819-10.356 23.175-23.175 23.175-12.82 0-23.176-10.356-23.176-23.175V93.772c0-12.819 10.357-23.175 23.176-23.175 12.036 0 21.902 9.131 23.061 20.858v275.59h.114Z" fill="currentColor"/><path d="M64 409.327h-.157V28.8c.104 1.052.157 2.12.157 3.2v16l69-17.3c38.1-9.5 78.4-5.1 113.5 12.5 46.3 23.2 100.8 23.2 147.1 0l9.6-4.8c20.6-10.3 44.8 4.7 44.8 27.7v247.6c0 13.4-8.3 25.3-20.8 30l-34.7 13c-46.2 17.4-97.5 14.7-141.7-7.4-37.9-18.9-81.4-23.7-122.5-13.4L64 352v57.327Z" style="fill:#fa8893" transform="translate(61.772 70.597) scale(.72423)"/></symbol><symbol viewBox="0 0 448 512" xml:space="preserve" style="fill-rule:evenodd;clip-rule:evenodd;stroke-linejoin:round;stroke-miterlimit:2" id="flag-toolbar" xmlns="http://www.w3.org/2000/svg"><path d="M108.123 367.044v51.184c0 12.819-10.356 23.175-23.175 23.175-12.82 0-23.176-10.356-23.176-23.175V93.772c0-12.819 10.357-23.175 23.176-23.175 12.036 0 21.902 9.131 23.061 20.858v275.59h.114Z" fill="currentColor"/><path d="M64 409.327h-.157V28.8c.104 1.052.157 2.12.157 3.2v16l69-17.3c38.1-9.5 78.4-5.1 113.5 12.5 46.3 23.2 100.8 23.2 147.1 0l9.6-4.8c20.6-10.3 44.8 4.7 44.8 27.7v247.6c0 13.4-8.3 25.3-20.8 30l-34.7 13c-46.2 17.4-97.5 14.7-141.7-7.4-37.9-18.9-81.4-23.7-122.5-13.4L64 352v57.327Z" style="fill:#f5f5f5;fill-opacity:.7" transform="translate(61.772 70.597) scale(.72423)"/></symbol><symbol viewBox="0 0 448 512" xml:space="preserve" style="fill-rule:evenodd;clip-rule:evenodd;stroke-linejoin:round;stroke-miterlimit:2" id="flag-white" xmlns="http://www.w3.org/2000/svg"><path d="M108.123 367.044v51.184c0 12.819-10.356 23.175-23.175 23.175-12.82 0-23.176-10.356-23.176-23.175V93.772c0-12.819 10.357-23.175 23.176-23.175 12.036 0 21.902 9.131 23.061 20.858v275.59h.114Z" fill="currentColor"/><path d="M64 409.327h-.157V28.8c.104 1.052.157 2.12.157 3.2v16l69-17.3c38.1-9.5 78.4-5.1 113.5 12.5 46.3 23.2 100.8 23.2 147.1 0l9.6-4.8c20.6-10.3 44.8 4.7 44.8 27.7v247.6c0 13.4-8.3 25.3-20.8 30l-34.7 13c-46.2 17.4-97.5 14.7-141.7-7.4-37.9-18.9-81.4-23.7-122.5-13.4L64 352v57.327Z" style="fill:#fff" transform="translate(61.772 70.597) scale(.72423)"/></symbol><symbol viewBox="0 0 448 512" xml:space="preserve" style="fill-rule:evenodd;clip-rule:evenodd;stroke-linejoin:round;stroke-miterlimit:2" id="flag-yellow" xmlns="http://www.w3.org/2000/svg"><path d="M108.123 367.044v51.184c0 12.819-10.356 23.175-23.175 23.175-12.82 0-23.176-10.356-23.176-23.175V93.772c0-12.819 10.357-23.175 23.176-23.175 12.036 0 21.902 9.131 23.061 20.858v275.59h.114Z" fill="currentColor"/><path d="M64 409.327h-.157V28.8c.104 1.052.157 2.12.157 3.2v16l69-17.3c38.1-9.5 78.4-5.1 113.5 12.5 46.3 23.2 100.8 23.2 147.1 0l9.6-4.8c20.6-10.3 44.8 4.7 44.8 27.7v247.6c0 13.4-8.3 25.3-20.8 30l-34.7 13c-46.2 17.4-97.5 14.7-141.7-7.4-37.9-18.9-81.4-23.7-122.5-13.4L64 352v57.327Z" style="fill:#ffcd75" transform="translate(61.772 70.597) scale(.72423)"/></symbol></svg>