<?xml version="1.0" encoding="utf-8"?><svg xmlns="http://www.w3.org/2000/svg" xmlns:xlink="http://www.w3.org/1999/xlink"><symbol xml:space="preserve" viewBox="0 0 16 16" id="heart-black" xmlns="http://www.w3.org/2000/svg"><path d="M15 5.5C15 3.6 13.4 2 11.5 2 9 2 8 4 8 4S7 2 4.5 2C2.6 2 1 3.6 1 5.5c0 3.2 5.7 7.6 6.8 8.8.1.1.3.1.4 0C9.3 13.1 15 8.7 15 5.5z" fill="currentColor"/></symbol><symbol viewBox="0 0 16 16" xml:space="preserve" style="fill-rule:evenodd;clip-rule:evenodd;stroke-linejoin:round;stroke-miterlimit:2" id="heart-blue" xmlns="http://www.w3.org/2000/svg"><path d="M15 5.5C15 3.6 13.4 2 11.5 2 9 2 8 4 8 4S7 2 4.5 2C2.6 2 1 3.6 1 5.5c0 3.2 5.7 7.6 6.8 8.8.1.1.3.1.4 0C9.3 13.1 15 8.7 15 5.5Z" style="fill:#64bbc8;fill-rule:nonzero"/></symbol><symbol viewBox="0 0 16 16" xml:space="preserve" style="fill-rule:evenodd;clip-rule:evenodd;stroke-linejoin:round;stroke-miterlimit:2" id="heart-gray" xmlns="http://www.w3.org/2000/svg"><path d="M15 5.5C15 3.6 13.4 2 11.5 2 9 2 8 4 8 4S7 2 4.5 2C2.6 2 1 3.6 1 5.5c0 3.2 5.7 7.6 6.8 8.8.1.1.3.1.4 0C9.3 13.1 15 8.7 15 5.5Z" style="fill:#bbb;fill-rule:nonzero"/></symbol><symbol viewBox="0 0 16 16" xml:space="preserve" style="fill-rule:evenodd;clip-rule:evenodd;stroke-linejoin:round;stroke-miterlimit:2" id="heart-green" xmlns="http://www.w3.org/2000/svg"><path d="M15 5.5C15 3.6 13.4 2 11.5 2 9 2 8 4 8 4S7 2 4.5 2C2.6 2 1 3.6 1 5.5c0 3.2 5.7 7.6 6.8 8.8.1.1.3.1.4 0C9.3 13.1 15 8.7 15 5.5Z" style="fill:#6a9e71;fill-rule:nonzero"/></symbol><symbol viewBox="0 0 16 16" xml:space="preserve" style="fill-rule:evenodd;clip-rule:evenodd;stroke-linejoin:round;stroke-miterlimit:2" id="heart-red" xmlns="http://www.w3.org/2000/svg"><path d="M15 5.5C15 3.6 13.4 2 11.5 2 9 2 8 4 8 4S7 2 4.5 2C2.6 2 1 3.6 1 5.5c0 3.2 5.7 7.6 6.8 8.8.1.1.3.1.4 0C9.3 13.1 15 8.7 15 5.5Z" style="fill:#fa8893;fill-rule:nonzero"/></symbol><symbol viewBox="0 0 16 16" xml:space="preserve" style="fill-rule:evenodd;clip-rule:evenodd;stroke-linejoin:round;stroke-miterlimit:2" id="heart-yellow" xmlns="http://www.w3.org/2000/svg"><path d="M15 5.5C15 3.6 13.4 2 11.5 2 9 2 8 4 8 4S7 2 4.5 2C2.6 2 1 3.6 1 5.5c0 3.2 5.7 7.6 6.8 8.8.1.1.3.1.4 0C9.3 13.1 15 8.7 15 5.5Z" style="fill:#ffcd75;fill-rule:nonzero"/></symbol></svg>