<?xml version="1.0" encoding="utf-8"?><svg xmlns="http://www.w3.org/2000/svg" xmlns:xlink="http://www.w3.org/1999/xlink"><symbol xml:space="preserve" viewBox="0 0 16 16" id="info-black" xmlns="http://www.w3.org/2000/svg"><path d="M8 1C4.1 1 1 4.1 1 8s3.1 7 7 7 7-3.1 7-7-3.1-7-7-7zm1 10a1 1 0 1 1-2 0V8a1 1 0 1 1 2 0v3zM8 6a1 1 0 1 1 0-2 1 1 0 0 1 0 2z" fill="currentColor"/></symbol><symbol viewBox="0 0 16 16" xml:space="preserve" style="fill-rule:evenodd;clip-rule:evenodd;stroke-linejoin:round;stroke-miterlimit:2" id="info-blue" xmlns="http://www.w3.org/2000/svg"><path d="M8 1C4.1 1 1 4.1 1 8s3.1 7 7 7 7-3.1 7-7-3.1-7-7-7Zm1 10c0 .549-.451 1-1 1-.549 0-1-.451-1-1V8c0-.549.451-1 1-1 .549 0 1 .451 1 1v3ZM8 6c-.549 0-1-.451-1-1 0-.549.451-1 1-1 .549 0 1 .451 1 1 0 .549-.451 1-1 1Z" style="fill:#64bbc8;fill-rule:nonzero"/></symbol><symbol viewBox="0 0 16 16" xml:space="preserve" style="fill-rule:evenodd;clip-rule:evenodd;stroke-linejoin:round;stroke-miterlimit:2" id="info-gray" xmlns="http://www.w3.org/2000/svg"><path d="M8 1C4.1 1 1 4.1 1 8s3.1 7 7 7 7-3.1 7-7-3.1-7-7-7Zm1 10c0 .549-.451 1-1 1-.549 0-1-.451-1-1V8c0-.549.451-1 1-1 .549 0 1 .451 1 1v3ZM8 6c-.549 0-1-.451-1-1 0-.549.451-1 1-1 .549 0 1 .451 1 1 0 .549-.451 1-1 1Z" style="fill:#bbb;fill-rule:nonzero"/></symbol><symbol viewBox="0 0 16 16" xml:space="preserve" style="fill-rule:evenodd;clip-rule:evenodd;stroke-linejoin:round;stroke-miterlimit:2" id="info-green" xmlns="http://www.w3.org/2000/svg"><path d="M8 1C4.1 1 1 4.1 1 8s3.1 7 7 7 7-3.1 7-7-3.1-7-7-7Zm1 10c0 .549-.451 1-1 1-.549 0-1-.451-1-1V8c0-.549.451-1 1-1 .549 0 1 .451 1 1v3ZM8 6c-.549 0-1-.451-1-1 0-.549.451-1 1-1 .549 0 1 .451 1 1 0 .549-.451 1-1 1Z" style="fill:#6a9e71;fill-rule:nonzero"/></symbol><symbol viewBox="0 0 16 16" xml:space="preserve" style="fill-rule:evenodd;clip-rule:evenodd;stroke-linejoin:round;stroke-miterlimit:2" id="info-red" xmlns="http://www.w3.org/2000/svg"><path d="M8 1C4.1 1 1 4.1 1 8s3.1 7 7 7 7-3.1 7-7-3.1-7-7-7Zm1 10c0 .549-.451 1-1 1-.549 0-1-.451-1-1V8c0-.549.451-1 1-1 .549 0 1 .451 1 1v3ZM8 6c-.549 0-1-.451-1-1 0-.549.451-1 1-1 .549 0 1 .451 1 1 0 .549-.451 1-1 1Z" style="fill:#fa8893;fill-rule:nonzero"/></symbol><symbol viewBox="0 0 16 16" xml:space="preserve" style="fill-rule:evenodd;clip-rule:evenodd;stroke-linejoin:round;stroke-miterlimit:2" id="info-yellow" xmlns="http://www.w3.org/2000/svg"><path d="M8 1C4.1 1 1 4.1 1 8s3.1 7 7 7 7-3.1 7-7-3.1-7-7-7Zm1 10c0 .549-.451 1-1 1-.549 0-1-.451-1-1V8c0-.549.451-1 1-1 .549 0 1 .451 1 1v3ZM8 6c-.549 0-1-.451-1-1 0-.549.451-1 1-1 .549 0 1 .451 1 1 0 .549-.451 1-1 1Z" style="fill:#ffcd75;fill-rule:nonzero"/></symbol></svg>