<?xml version="1.0" encoding="utf-8"?><svg xmlns="http://www.w3.org/2000/svg" xmlns:xlink="http://www.w3.org/1999/xlink"><symbol viewBox="0 0 16 16" id="info-black" xmlns="http://www.w3.org/2000/svg"><g fill="currentColor"><path d="M8 2c3.3 0 6 2.7 6 6s-2.7 6-6 6-6-2.7-6-6 2.7-6 6-6m0-1C4.1 1 1 4.1 1 8s3.1 7 7 7 7-3.1 7-7-3.1-7-7-7z"/><path d="M7 5a1 1 0 1 1 2 0 1 1 0 1 1-2 0zm0 3a1 1 0 1 1 2 0v3a1 1 0 1 1-2 0V8z"/></g></symbol><symbol viewBox="0 0 16 16" id="info-blue" xmlns="http://www.w3.org/2000/svg"><g fill="currentColor"><path fill="#64BBC8" d="M8 2c3.3 0 6 2.7 6 6s-2.7 6-6 6-6-2.7-6-6 2.7-6 6-6m0-1C4.1 1 1 4.1 1 8s3.1 7 7 7 7-3.1 7-7-3.1-7-7-7z"/><path d="M7 5a1 1 0 1 1 2 0 1 1 0 1 1-2 0zm0 3a1 1 0 1 1 2 0v3a1 1 0 1 1-2 0V8z"/></g></symbol><symbol viewBox="0 0 16 16" xml:space="preserve" style="fill-rule:evenodd;clip-rule:evenodd;stroke-linejoin:round;stroke-miterlimit:2" id="info-gray" xmlns="http://www.w3.org/2000/svg"><path d="M8 1C4.1 1 1 4.1 1 8s3.1 7 7 7 7-3.1 7-7-3.1-7-7-7Zm1 10c0 .549-.451 1-1 1-.549 0-1-.451-1-1V8c0-.549.451-1 1-1 .549 0 1 .451 1 1v3ZM8 6c-.549 0-1-.451-1-1 0-.549.451-1 1-1 .549 0 1 .451 1 1 0 .549-.451 1-1 1Z" style="fill:#bbb;fill-rule:nonzero"/></symbol><symbol viewBox="0 0 16 16" id="info-green" xmlns="http://www.w3.org/2000/svg"><g fill="currentColor"><path fill="#6A9E71" d="M8 2c3.3 0 6 2.7 6 6s-2.7 6-6 6-6-2.7-6-6 2.7-6 6-6m0-1C4.1 1 1 4.1 1 8s3.1 7 7 7 7-3.1 7-7-3.1-7-7-7z"/><path d="M7 5a1 1 0 1 1 2 0 1 1 0 1 1-2 0zm0 3a1 1 0 1 1 2 0v3a1 1 0 1 1-2 0V8z"/></g></symbol><symbol viewBox="0 0 16 16" id="info-orange" xmlns="http://www.w3.org/2000/svg"><g fill="currentColor"><path fill="#FF7043" d="M8 2c3.3 0 6 2.7 6 6s-2.7 6-6 6-6-2.7-6-6 2.7-6 6-6m0-1C4.1 1 1 4.1 1 8s3.1 7 7 7 7-3.1 7-7-3.1-7-7-7z"/><path d="M7 5a1 1 0 1 1 2 0 1 1 0 1 1-2 0zm0 3a1 1 0 1 1 2 0v3a1 1 0 1 1-2 0V8z"/></g></symbol><symbol viewBox="0 0 16 16" id="info-purple" xmlns="http://www.w3.org/2000/svg"><g fill="currentColor"><path fill="#5C6BC0" d="M8 2c3.3 0 6 2.7 6 6s-2.7 6-6 6-6-2.7-6-6 2.7-6 6-6m0-1C4.1 1 1 4.1 1 8s3.1 7 7 7 7-3.1 7-7-3.1-7-7-7z"/><path d="M7 5a1 1 0 1 1 2 0 1 1 0 1 1-2 0zm0 3a1 1 0 1 1 2 0v3a1 1 0 1 1-2 0V8z"/></g></symbol><symbol viewBox="0 0 16 16" id="info-red" xmlns="http://www.w3.org/2000/svg"><g fill="currentColor"><path fill="#FA8893" d="M8 2c3.3 0 6 2.7 6 6s-2.7 6-6 6-6-2.7-6-6 2.7-6 6-6m0-1C4.1 1 1 4.1 1 8s3.1 7 7 7 7-3.1 7-7-3.1-7-7-7z"/><path d="M7 5a1 1 0 1 1 2 0 1 1 0 1 1-2 0zm0 3a1 1 0 1 1 2 0v3a1 1 0 1 1-2 0V8z"/></g></symbol><symbol viewBox="0 0 16 16" id="info-yellow" xmlns="http://www.w3.org/2000/svg"><g fill="currentColor"><path fill="#FFCD75" d="M8 2c3.3 0 6 2.7 6 6s-2.7 6-6 6-6-2.7-6-6 2.7-6 6-6m0-1C4.1 1 1 4.1 1 8s3.1 7 7 7 7-3.1 7-7-3.1-7-7-7z"/><path d="M7 5a1 1 0 1 1 2 0 1 1 0 1 1-2 0zm0 3a1 1 0 1 1 2 0v3a1 1 0 1 1-2 0V8z"/></g></symbol></svg>