<?xml version="1.0" encoding="utf-8"?><svg xmlns="http://www.w3.org/2000/svg" xmlns:xlink="http://www.w3.org/1999/xlink"><symbol viewBox="0 0 16 16" id="rocket-black" xmlns="http://www.w3.org/2000/svg"><g fill="currentColor"><path d="M15 1C13.3-.7 6 5 6 5H2L0 7l2 2 1 1-2 2 3 3 2-2 1 1 2 2 2-2v-4s5.7-7.3 4-9zM2.7 8.3 1.4 7l1-1H5L2.7 8.3zm7.3 5.3-1 1-1.3-1.3L10 11v2.6zm.3-4.3L7 12.6l-.3-.3-.7-.7-.7.7L4 13.6 2.4 12l1.3-1.3.7-.7-.7-.7-.3-.3 3.3-3.3c2-1.6 5.8-4.1 7.4-4.1h.2c.4.7-1.2 4.2-4 7.7z"/><path d="M11 4c-.6 0-1 .4-1 1s.4 1 1 1 1-.4 1-1-.4-1-1-1zM1 15H0v1h1v-1zm1-1H1v1h1v-1zm-1-1H0v1h1v-1zm2 2H2v1h1v-1z"/></g></symbol><symbol viewBox="0 0 16 16" id="rocket-blue" xmlns="http://www.w3.org/2000/svg"><g fill="currentColor"><path d="M15 1C13.3-.7 6 5 6 5H2L0 7l2 2 1 1-2 2 3 3 2-2 1 1 2 2 2-2v-4s5.7-7.3 4-9zM2.7 8.3 1.4 7l1-1H5L2.7 8.3zm7.3 5.3-1 1-1.3-1.3L10 11v2.6zm.3-4.3L7 12.6l-.3-.3-.7-.7-.7.7L4 13.6 2.4 12l1.3-1.3.7-.7-.7-.7-.3-.3 3.3-3.3c2-1.6 5.8-4.1 7.4-4.1h.2c.4.7-1.2 4.2-4 7.7z"/><path fill="#64BBC8" d="M11 4c-.6 0-1 .4-1 1s.4 1 1 1 1-.4 1-1-.4-1-1-1zM1 15H0v1h1v-1zm1-1H1v1h1v-1zm-1-1H0v1h1v-1zm2 2H2v1h1v-1z"/></g></symbol><symbol viewBox="0 0 16 16" id="rocket-green" xmlns="http://www.w3.org/2000/svg"><g fill="currentColor"><path d="M15 1C13.3-.7 6 5 6 5H2L0 7l2 2 1 1-2 2 3 3 2-2 1 1 2 2 2-2v-4s5.7-7.3 4-9zM2.7 8.3 1.4 7l1-1H5L2.7 8.3zm7.3 5.3-1 1-1.3-1.3L10 11v2.6zm.3-4.3L7 12.6l-.3-.3-.7-.7-.7.7L4 13.6 2.4 12l1.3-1.3.7-.7-.7-.7-.3-.3 3.3-3.3c2-1.6 5.8-4.1 7.4-4.1h.2c.4.7-1.2 4.2-4 7.7z"/><path fill="#6A9E71" d="M11 4c-.6 0-1 .4-1 1s.4 1 1 1 1-.4 1-1-.4-1-1-1zM1 15H0v1h1v-1zm1-1H1v1h1v-1zm-1-1H0v1h1v-1zm2 2H2v1h1v-1z"/></g></symbol><symbol viewBox="0 0 16 16" id="rocket-orange" xmlns="http://www.w3.org/2000/svg"><g fill="currentColor"><path d="M15 1C13.3-.7 6 5 6 5H2L0 7l2 2 1 1-2 2 3 3 2-2 1 1 2 2 2-2v-4s5.7-7.3 4-9zM2.7 8.3 1.4 7l1-1H5L2.7 8.3zm7.3 5.3-1 1-1.3-1.3L10 11v2.6zm.3-4.3L7 12.6l-.3-.3-.7-.7-.7.7L4 13.6 2.4 12l1.3-1.3.7-.7-.7-.7-.3-.3 3.3-3.3c2-1.6 5.8-4.1 7.4-4.1h.2c.4.7-1.2 4.2-4 7.7z"/><path fill="#FF7043" d="M11 4c-.6 0-1 .4-1 1s.4 1 1 1 1-.4 1-1-.4-1-1-1zM1 15H0v1h1v-1zm1-1H1v1h1v-1zm-1-1H0v1h1v-1zm2 2H2v1h1v-1z"/></g></symbol><symbol viewBox="0 0 16 16" id="rocket-purple" xmlns="http://www.w3.org/2000/svg"><g fill="currentColor"><path d="M15 1C13.3-.7 6 5 6 5H2L0 7l2 2 1 1-2 2 3 3 2-2 1 1 2 2 2-2v-4s5.7-7.3 4-9zM2.7 8.3 1.4 7l1-1H5L2.7 8.3zm7.3 5.3-1 1-1.3-1.3L10 11v2.6zm.3-4.3L7 12.6l-.3-.3-.7-.7-.7.7L4 13.6 2.4 12l1.3-1.3.7-.7-.7-.7-.3-.3 3.3-3.3c2-1.6 5.8-4.1 7.4-4.1h.2c.4.7-1.2 4.2-4 7.7z"/><path fill="#5C6BC0" d="M11 4c-.6 0-1 .4-1 1s.4 1 1 1 1-.4 1-1-.4-1-1-1zM1 15H0v1h1v-1zm1-1H1v1h1v-1zm-1-1H0v1h1v-1zm2 2H2v1h1v-1z"/></g></symbol><symbol viewBox="0 0 16 16" id="rocket-red" xmlns="http://www.w3.org/2000/svg"><g fill="currentColor"><path d="M15 1C13.3-.7 6 5 6 5H2L0 7l2 2 1 1-2 2 3 3 2-2 1 1 2 2 2-2v-4s5.7-7.3 4-9zM2.7 8.3 1.4 7l1-1H5L2.7 8.3zm7.3 5.3-1 1-1.3-1.3L10 11v2.6zm.3-4.3L7 12.6l-.3-.3-.7-.7-.7.7L4 13.6 2.4 12l1.3-1.3.7-.7-.7-.7-.3-.3 3.3-3.3c2-1.6 5.8-4.1 7.4-4.1h.2c.4.7-1.2 4.2-4 7.7z"/><path fill="#FA8893" d="M11 4c-.6 0-1 .4-1 1s.4 1 1 1 1-.4 1-1-.4-1-1-1zM1 15H0v1h1v-1zm1-1H1v1h1v-1zm-1-1H0v1h1v-1zm2 2H2v1h1v-1z"/></g></symbol><symbol viewBox="0 0 16 16" id="rocket-yellow" xmlns="http://www.w3.org/2000/svg"><g fill="currentColor"><path d="M15 1C13.3-.7 6 5 6 5H2L0 7l2 2 1 1-2 2 3 3 2-2 1 1 2 2 2-2v-4s5.7-7.3 4-9zM2.7 8.3 1.4 7l1-1H5L2.7 8.3zm7.3 5.3-1 1-1.3-1.3L10 11v2.6zm.3-4.3L7 12.6l-.3-.3-.7-.7-.7.7L4 13.6 2.4 12l1.3-1.3.7-.7-.7-.7-.3-.3 3.3-3.3c2-1.6 5.8-4.1 7.4-4.1h.2c.4.7-1.2 4.2-4 7.7z"/><path d="M11 4c-.6 0-1 .4-1 1s.4 1 1 1 1-.4 1-1-.4-1-1-1zM1 15H0v1h1v-1zm1-1H1v1h1v-1zm-1-1H0v1h1v-1zm2 2H2v1h1v-1z"/></g></symbol></svg>