<?xml version="1.0" encoding="utf-8"?><svg xmlns="http://www.w3.org/2000/svg" xmlns:xlink="http://www.w3.org/1999/xlink"><symbol xml:space="preserve" viewBox="0 0 16 16" id="star-black" xmlns="http://www.w3.org/2000/svg"><path d="M13.7 6H9.8L8.5 2.1c-.2-.4-.7-.4-.9 0L6.2 6H2.3c-.5 0-.7.6-.4.9l3 2.8-1.4 4.1c-.2.4.3.9.7.6L8 12l3.8 2.4c.4.2.9-.2.7-.6l-1.4-4.1 3-2.8c.3-.3.1-.9-.4-.9z" fill="currentColor"/></symbol><symbol viewBox="0 0 16 16" xml:space="preserve" style="fill-rule:evenodd;clip-rule:evenodd;stroke-linejoin:round;stroke-miterlimit:2" id="star-blue" xmlns="http://www.w3.org/2000/svg"><path d="M13.7 6H9.8L8.5 2.1c-.2-.4-.7-.4-.9 0L6.2 6H2.3c-.5 0-.7.6-.4.9l3 2.8-1.4 4.1c-.2.4.3.9.7.6L8 12l3.8 2.4c.4.2.9-.2.7-.6l-1.4-4.1 3-2.8c.3-.3.1-.9-.4-.9Z" style="fill:#64bbc8;fill-rule:nonzero"/></symbol><symbol viewBox="0 0 16 16" xml:space="preserve" style="fill-rule:evenodd;clip-rule:evenodd;stroke-linejoin:round;stroke-miterlimit:2" id="star-gray" xmlns="http://www.w3.org/2000/svg"><path d="M13.7 6H9.8L8.5 2.1c-.2-.4-.7-.4-.9 0L6.2 6H2.3c-.5 0-.7.6-.4.9l3 2.8-1.4 4.1c-.2.4.3.9.7.6L8 12l3.8 2.4c.4.2.9-.2.7-.6l-1.4-4.1 3-2.8c.3-.3.1-.9-.4-.9Z" style="fill:#bbb;fill-rule:nonzero"/></symbol><symbol viewBox="0 0 16 16" xml:space="preserve" style="fill-rule:evenodd;clip-rule:evenodd;stroke-linejoin:round;stroke-miterlimit:2" id="star-green" xmlns="http://www.w3.org/2000/svg"><path d="M13.7 6H9.8L8.5 2.1c-.2-.4-.7-.4-.9 0L6.2 6H2.3c-.5 0-.7.6-.4.9l3 2.8-1.4 4.1c-.2.4.3.9.7.6L8 12l3.8 2.4c.4.2.9-.2.7-.6l-1.4-4.1 3-2.8c.3-.3.1-.9-.4-.9Z" style="fill:#6a9e71;fill-rule:nonzero"/></symbol><symbol viewBox="0 0 16 16" xml:space="preserve" style="fill-rule:evenodd;clip-rule:evenodd;stroke-linejoin:round;stroke-miterlimit:2" id="star-orange" xmlns="http://www.w3.org/2000/svg"><path d="M13.7 6H9.8L8.5 2.1c-.2-.4-.7-.4-.9 0L6.2 6H2.3c-.5 0-.7.6-.4.9l3 2.8-1.4 4.1c-.2.4.3.9.7.6L8 12l3.8 2.4c.4.2.9-.2.7-.6l-1.4-4.1 3-2.8c.3-.3.1-.9-.4-.9Z" style="fill:#f57c00;fill-rule:nonzero"/></symbol><symbol viewBox="0 0 16 16" xml:space="preserve" style="fill-rule:evenodd;clip-rule:evenodd;stroke-linejoin:round;stroke-miterlimit:2" id="star-purple" xmlns="http://www.w3.org/2000/svg"><path d="M13.7 6H9.8L8.5 2.1c-.2-.4-.7-.4-.9 0L6.2 6H2.3c-.5 0-.7.6-.4.9l3 2.8-1.4 4.1c-.2.4.3.9.7.6L8 12l3.8 2.4c.4.2.9-.2.7-.6l-1.4-4.1 3-2.8c.3-.3.1-.9-.4-.9Z" style="fill:#673ab7;fill-rule:nonzero"/></symbol><symbol viewBox="0 0 16 16" xml:space="preserve" style="fill-rule:evenodd;clip-rule:evenodd;stroke-linejoin:round;stroke-miterlimit:2" id="star-red" xmlns="http://www.w3.org/2000/svg"><path d="M13.7 6H9.8L8.5 2.1c-.2-.4-.7-.4-.9 0L6.2 6H2.3c-.5 0-.7.6-.4.9l3 2.8-1.4 4.1c-.2.4.3.9.7.6L8 12l3.8 2.4c.4.2.9-.2.7-.6l-1.4-4.1 3-2.8c.3-.3.1-.9-.4-.9Z" style="fill:#fa8893;fill-rule:nonzero"/></symbol><symbol viewBox="0 0 16 16" xml:space="preserve" style="fill-rule:evenodd;clip-rule:evenodd;stroke-linejoin:round;stroke-miterlimit:2" id="star-yellow" xmlns="http://www.w3.org/2000/svg"><path d="M13.7 6H9.8L8.5 2.1c-.2-.4-.7-.4-.9 0L6.2 6H2.3c-.5 0-.7.6-.4.9l3 2.8-1.4 4.1c-.2.4.3.9.7.6L8 12l3.8 2.4c.4.2.9-.2.7-.6l-1.4-4.1 3-2.8c.3-.3.1-.9-.4-.9Z" style="fill:#ffcd75;fill-rule:nonzero"/></symbol></svg>