<?xml version="1.0" encoding="utf-8"?><svg xmlns="http://www.w3.org/2000/svg" xmlns:xlink="http://www.w3.org/1999/xlink"><symbol xml:space="preserve" viewBox="0 0 16 16" id="tag-black" xmlns="http://www.w3.org/2000/svg"><g fill="currentColor"><path d="M6.657 1H1v5.656l8.485 8.485 5.657-5.657L6.657 1zM1.99 6.232V1.99h4.243l7.495 7.494-4.243 4.243L1.99 6.232z"/><path d="M3.475 3.475A1.75 1.75 0 1 0 5.952 5.95a1.75 1.75 0 0 0-2.477-2.475zm.707.707a.75.75 0 1 1 1.061 1.06.75.75 0 0 1-1.061-1.06zm1.944 4.42 2.475-2.475 3.535 3.536-2.475 2.474z"/></g></symbol><symbol viewBox="0 0 16 16" xml:space="preserve" style="fill-rule:evenodd;clip-rule:evenodd;stroke-linejoin:round;stroke-miterlimit:2" id="tag-blue" xmlns="http://www.w3.org/2000/svg"><path d="M6.657 1H1v5.656l8.485 8.485 5.657-5.657L6.657 1ZM1.99 6.232V1.99h4.243l7.495 7.494-4.243 4.243L1.99 6.232Z" fill="currentColor"/><path d="M3.475 3.475a1.751 1.751 0 0 0-.512 1.238c0 .96.79 1.75 1.75 1.75a1.749 1.749 0 0 0 1.751-1.75c0-.961-.79-1.751-1.751-1.751-.464 0-.91.184-1.238.513Zm.707.707a.751.751 0 1 1 .54 1.271.75.75 0 0 1-.54-1.271Zm1.944 4.42 2.475-2.475 3.535 3.536-2.475 2.474-3.535-3.535Z" style="fill:#64bbc8;fill-rule:nonzero"/></symbol><symbol viewBox="0 0 16 16" xml:space="preserve" style="fill-rule:evenodd;clip-rule:evenodd;stroke-linejoin:round;stroke-miterlimit:2" id="tag-gray" xmlns="http://www.w3.org/2000/svg"><path d="M6.657 1H1v5.656l8.485 8.485 5.657-5.657L6.657 1ZM1.99 6.232V1.99h4.243l7.495 7.494-4.243 4.243L1.99 6.232Z" fill="currentColor"/><path d="M3.475 3.475a1.751 1.751 0 0 0-.512 1.238c0 .96.79 1.75 1.75 1.75a1.749 1.749 0 0 0 1.751-1.75c0-.961-.79-1.751-1.751-1.751-.464 0-.91.184-1.238.513Zm.707.707a.751.751 0 1 1 .54 1.271.75.75 0 0 1-.54-1.271Zm1.944 4.42 2.475-2.475 3.535 3.536-2.475 2.474-3.535-3.535Z" style="fill:#bbb;fill-rule:nonzero"/></symbol><symbol viewBox="0 0 16 16" xml:space="preserve" style="fill-rule:evenodd;clip-rule:evenodd;stroke-linejoin:round;stroke-miterlimit:2" id="tag-green" xmlns="http://www.w3.org/2000/svg"><path d="M6.657 1H1v5.656l8.485 8.485 5.657-5.657L6.657 1ZM1.99 6.232V1.99h4.243l7.495 7.494-4.243 4.243L1.99 6.232Z" fill="currentColor"/><path d="M3.475 3.475a1.751 1.751 0 0 0-.512 1.238c0 .96.79 1.75 1.75 1.75a1.749 1.749 0 0 0 1.751-1.75c0-.961-.79-1.751-1.751-1.751-.464 0-.91.184-1.238.513Zm.707.707a.751.751 0 1 1 .54 1.271.75.75 0 0 1-.54-1.271Zm1.944 4.42 2.475-2.475 3.535 3.536-2.475 2.474-3.535-3.535Z" style="fill:#6a9e71;fill-rule:nonzero"/></symbol><symbol viewBox="0 0 16 16" xml:space="preserve" style="fill-rule:evenodd;clip-rule:evenodd;stroke-linejoin:round;stroke-miterlimit:2" id="tag-red" xmlns="http://www.w3.org/2000/svg"><path d="M6.657 1H1v5.656l8.485 8.485 5.657-5.657L6.657 1ZM1.99 6.232V1.99h4.243l7.495 7.494-4.243 4.243L1.99 6.232Z" fill="currentColor"/><path d="M3.475 3.475a1.751 1.751 0 0 0-.512 1.238c0 .96.79 1.75 1.75 1.75a1.749 1.749 0 0 0 1.751-1.75c0-.961-.79-1.751-1.751-1.751-.464 0-.91.184-1.238.513Zm.707.707a.751.751 0 1 1 .54 1.271.75.75 0 0 1-.54-1.271Zm1.944 4.42 2.475-2.475 3.535 3.536-2.475 2.474-3.535-3.535Z" style="fill:#fa8893;fill-rule:nonzero"/></symbol><symbol viewBox="0 0 16 16" xml:space="preserve" style="fill-rule:evenodd;clip-rule:evenodd;stroke-linejoin:round;stroke-miterlimit:2" id="tag-yellow" xmlns="http://www.w3.org/2000/svg"><path d="M6.657 1H1v5.656l8.485 8.485 5.657-5.657L6.657 1ZM1.99 6.232V1.99h4.243l7.495 7.494-4.243 4.243L1.99 6.232Z" fill="currentColor"/><path d="M3.475 3.475a1.751 1.751 0 0 0-.512 1.238c0 .96.79 1.75 1.75 1.75a1.749 1.749 0 0 0 1.751-1.75c0-.961-.79-1.751-1.751-1.751-.464 0-.91.184-1.238.513Zm.707.707a.751.751 0 1 1 .54 1.271.75.75 0 0 1-.54-1.271Zm1.944 4.42 2.475-2.475 3.535 3.536-2.475 2.474-3.535-3.535Z" style="fill:#ffcd75;fill-rule:nonzero"/></symbol></svg>