<?xml version="1.0" encoding="utf-8"?><svg xmlns="http://www.w3.org/2000/svg" xmlns:xlink="http://www.w3.org/1999/xlink"><symbol viewBox="0 0 16 16" xml:space="preserve" style="fill-rule:evenodd;clip-rule:evenodd;stroke-linejoin:round;stroke-miterlimit:2" id="thumbtack-black" xmlns="http://www.w3.org/2000/svg"><path d="m13.933 6.158.006.003-3.182 3.182L15 13.586V15h-1.414l-4.242-4.243-3.182 3.182 7.771-7.781ZM6.162 13.939l-1.253-2.506a.5.5 0 0 1 .094-.577l.664-.664-1.485-2.758-.849.849-1.768-1.768a.502.502 0 0 1 0-.707l4.243-4.243a.502.502 0 0 1 .707 0l1.768 1.767-.849.849 2.758 1.485.664-.664a.5.5 0 0 1 .577-.094l2.5 1.25-7.771 7.781ZM3.333 6.868l3.535-3.536-.707-.707-3.535 3.536.707.707Zm1.586-.172 1.485 2.757 3.049-3.048L6.695 4.92 4.919 6.696Zm1.045 4.612.472.942 5.816-5.816-.943-.471-5.345 5.345Z"/></symbol><symbol viewBox="0 0 16 16" xml:space="preserve" style="fill-rule:evenodd;clip-rule:evenodd;stroke-linejoin:round;stroke-miterlimit:2" id="thumbtack-blue" xmlns="http://www.w3.org/2000/svg"><g fill="currentColor"><path d="m13.933 6.158.006.003-3.182 3.182L15 13.586V15h-1.414l-4.242-4.243-3.182 3.182 7.771-7.781Z"/><path fill="#64BBC8" d="m6.162 13.939-1.253-2.506a.5.5 0 0 1 .094-.577l.664-.664-1.485-2.758-.849.849-1.768-1.768a.502.502 0 0 1 0-.707l4.243-4.243a.502.502 0 0 1 .707 0l1.768 1.767-.849.849 2.758 1.485.664-.664a.5.5 0 0 1 .577-.094l2.5 1.25-7.771 7.781ZM3.333 6.868l3.535-3.536-.707-.707-3.535 3.536.707.707Zm1.586-.172 1.485 2.757 3.049-3.048L6.695 4.92 4.919 6.696Zm1.045 4.612.472.942 5.816-5.816-.943-.471-5.345 5.345Z"/></g></symbol><symbol viewBox="0 0 16 16" xml:space="preserve" style="fill-rule:evenodd;clip-rule:evenodd;stroke-linejoin:round;stroke-miterlimit:2" id="thumbtack-green" xmlns="http://www.w3.org/2000/svg"><g fill="currentColor"><path d="m13.933 6.158.006.003-3.182 3.182L15 13.586V15h-1.414l-4.242-4.243-3.182 3.182 7.771-7.781Z"/><path fill="#6A9E71" d="m6.162 13.939-1.253-2.506a.5.5 0 0 1 .094-.577l.664-.664-1.485-2.758-.849.849-1.768-1.768a.502.502 0 0 1 0-.707l4.243-4.243a.502.502 0 0 1 .707 0l1.768 1.767-.849.849 2.758 1.485.664-.664a.5.5 0 0 1 .577-.094l2.5 1.25-7.771 7.781ZM3.333 6.868l3.535-3.536-.707-.707-3.535 3.536.707.707Zm1.586-.172 1.485 2.757 3.049-3.048L6.695 4.92 4.919 6.696Zm1.045 4.612.472.942 5.816-5.816-.943-.471-5.345 5.345Z"/></g></symbol><symbol viewBox="0 0 16 16" xml:space="preserve" style="fill-rule:evenodd;clip-rule:evenodd;stroke-linejoin:round;stroke-miterlimit:2" id="thumbtack-orange" xmlns="http://www.w3.org/2000/svg"><g fill="currentColor"><path d="m13.933 6.158.006.003-3.182 3.182L15 13.586V15h-1.414l-4.242-4.243-3.182 3.182 7.771-7.781Z"/><path fill="#FF7043" d="m6.162 13.939-1.253-2.506a.5.5 0 0 1 .094-.577l.664-.664-1.485-2.758-.849.849-1.768-1.768a.502.502 0 0 1 0-.707l4.243-4.243a.502.502 0 0 1 .707 0l1.768 1.767-.849.849 2.758 1.485.664-.664a.5.5 0 0 1 .577-.094l2.5 1.25-7.771 7.781ZM3.333 6.868l3.535-3.536-.707-.707-3.535 3.536.707.707Zm1.586-.172 1.485 2.757 3.049-3.048L6.695 4.92 4.919 6.696Zm1.045 4.612.472.942 5.816-5.816-.943-.471-5.345 5.345Z"/></g></symbol><symbol viewBox="0 0 16 16" xml:space="preserve" style="fill-rule:evenodd;clip-rule:evenodd;stroke-linejoin:round;stroke-miterlimit:2" id="thumbtack-purple" xmlns="http://www.w3.org/2000/svg"><g fill="currentColor"><path d="m13.933 6.158.006.003-3.182 3.182L15 13.586V15h-1.414l-4.242-4.243-3.182 3.182 7.771-7.781Z"/><path fill="#5C6BC0" d="m6.162 13.939-1.253-2.506a.5.5 0 0 1 .094-.577l.664-.664-1.485-2.758-.849.849-1.768-1.768a.502.502 0 0 1 0-.707l4.243-4.243a.502.502 0 0 1 .707 0l1.768 1.767-.849.849 2.758 1.485.664-.664a.5.5 0 0 1 .577-.094l2.5 1.25-7.771 7.781ZM3.333 6.868l3.535-3.536-.707-.707-3.535 3.536.707.707Zm1.586-.172 1.485 2.757 3.049-3.048L6.695 4.92 4.919 6.696Zm1.045 4.612.472.942 5.816-5.816-.943-.471-5.345 5.345Z"/></g></symbol><symbol viewBox="0 0 16 16" xml:space="preserve" style="fill-rule:evenodd;clip-rule:evenodd;stroke-linejoin:round;stroke-miterlimit:2" id="thumbtack-red" xmlns="http://www.w3.org/2000/svg"><g fill="currentColor"><path d="m13.933 6.158.006.003-3.182 3.182L15 13.586V15h-1.414l-4.242-4.243-3.182 3.182 7.771-7.781Z"/><path fill="#FA8893" d="m6.162 13.939-1.253-2.506a.5.5 0 0 1 .094-.577l.664-.664-1.485-2.758-.849.849-1.768-1.768a.502.502 0 0 1 0-.707l4.243-4.243a.502.502 0 0 1 .707 0l1.768 1.767-.849.849 2.758 1.485.664-.664a.5.5 0 0 1 .577-.094l2.5 1.25-7.771 7.781ZM3.333 6.868l3.535-3.536-.707-.707-3.535 3.536.707.707Zm1.586-.172 1.485 2.757 3.049-3.048L6.695 4.92 4.919 6.696Zm1.045 4.612.472.942 5.816-5.816-.943-.471-5.345 5.345Z"/></g></symbol><symbol viewBox="0 0 16 16" xml:space="preserve" style="fill-rule:evenodd;clip-rule:evenodd;stroke-linejoin:round;stroke-miterlimit:2" id="thumbtack-yellow" xmlns="http://www.w3.org/2000/svg"><g fill="currentColor"><path d="m13.933 6.158.006.003-3.182 3.182L15 13.586V15h-1.414l-4.242-4.243-3.182 3.182 7.771-7.781Z"/><path fill="#FFCD75" d="m6.162 13.939-1.253-2.506a.5.5 0 0 1 .094-.577l.664-.664-1.485-2.758-.849.849-1.768-1.768a.502.502 0 0 1 0-.707l4.243-4.243a.502.502 0 0 1 .707 0l1.768 1.767-.849.849 2.758 1.485.664-.664a.5.5 0 0 1 .577-.094l2.5 1.25-7.771 7.781ZM3.333 6.868l3.535-3.536-.707-.707-3.535 3.536.707.707Zm1.586-.172 1.485 2.757 3.049-3.048L6.695 4.92 4.919 6.696Zm1.045 4.612.472.942 5.816-5.816-.943-.471-5.345 5.345Z"/></g></symbol></svg>